<svg width="444.256" height="209.837" xmlns="http://www.w3.org/2000/svg" xmlns:xlink="http://www.w3.org/1999/xlink" id="svg2" overflow="hidden"><defs id="defs4"></defs><g id="layer1" transform="translate(-152.872 -427.444)"><g id="g2989" transform="translate(113.234 306.36)"><path d="M190.576 167.001 229.229 167.001C234.565 167.001 238.897 170.986 238.897 175.909 238.897 180.833 234.565 184.818 229.229 184.818L190.576 184.818C185.24 184.818 180.908 180.833 180.908 175.909 180.908 170.986 185.24 167.001 190.576 167.001Z" id="path2991" stroke="none" fill="#FFD966" fill-rule="evenodd" fill-opacity="1"/><path d="M229.229 184.818C223.893 184.818 219.57 180.833 219.57 175.909 219.57 170.986 223.893 167.001 229.229 167.001" id="path2993" stroke="#000000" stroke-width="0.628282" stroke-linecap="butt" stroke-linejoin="miter" stroke-miterlimit="4" stroke-dasharray="" stroke-opacity="1" fill="none"/><path d="M190.576 167.001 229.229 167.001C234.565 167.001 238.897 170.986 238.897 175.909 238.897 180.833 234.565 184.818 229.229 184.818L190.576 184.818C185.24 184.818 180.908 180.833 180.908 175.909 180.908 170.986 185.24 167.001 190.576 167.001Z" id="path2995" stroke="#000000" stroke-width="0.628282" stroke-linecap="butt" stroke-linejoin="miter" stroke-miterlimit="4" stroke-dasharray="" stroke-opacity="1" fill="none"/><path d="M190.576 239.675 229.229 239.675C234.565 239.675 238.897 243.633 238.897 248.509 238.897 253.385 234.565 257.333 229.229 257.333L190.576 257.333C185.24 257.333 180.908 253.385 180.908 248.509 180.908 243.633 185.24 239.675 190.576 239.675Z" id="path2997" stroke="none" fill="#FFD966" fill-rule="evenodd" fill-opacity="1"/><path d="M229.229 257.333C223.893 257.333 219.57 253.385 219.57 248.509 219.57 243.633 223.893 239.675 229.229 239.675" id="path2999" stroke="#000000" stroke-width="0.628282" stroke-linecap="butt" stroke-linejoin="miter" stroke-miterlimit="4" stroke-dasharray="" stroke-opacity="1" fill="none"/><path d="M190.576 239.675 229.229 239.675C234.565 239.675 238.897 243.633 238.897 248.509 238.897 253.385 234.565 257.333 229.229 257.333L190.576 257.333C185.24 257.333 180.908 253.385 180.908 248.509 180.908 243.633 185.24 239.675 190.576 239.675Z" id="path3001" stroke="#000000" stroke-width="0.628282" stroke-linecap="butt" stroke-linejoin="miter" stroke-miterlimit="4" stroke-dasharray="" stroke-opacity="1" fill="none"/><path d="M80.5701 234.049C80.5701 232.061 82.1455 230.457 84.0866 230.457 86.0371 230.457 87.6031 232.061 87.6031 234.049 87.6031 236.037 86.0371 237.64 84.0866 237.64 82.1455 237.64 80.5701 236.037 80.5701 234.049" id="path3003" stroke="none" fill="#000000" fill-rule="evenodd" fill-opacity="1"/><path d="M80.5701 234.049C80.5701 232.061 82.1455 230.457 84.0866 230.457 86.0371 230.457 87.6031 232.061 87.6031 234.049 87.6031 236.037 86.0371 237.64 84.0866 237.64 82.1455 237.64 80.5701 236.037 80.5701 234.049" id="path3005" stroke="#000000" stroke-width="1.24719" stroke-linecap="butt" stroke-linejoin="miter" stroke-miterlimit="4" stroke-dasharray="" stroke-opacity="1" fill="none"/><path d="M84.171 237.64 84.171 248.546" id="path3007" stroke="#000000" stroke-width="1.87547" stroke-linecap="butt" stroke-linejoin="miter" stroke-miterlimit="4" stroke-dasharray="" stroke-opacity="1" fill="none"/><path d="M84.171 246.549 70.4144 280.729" id="path3009" stroke="#000000" stroke-width="1.87547" stroke-linecap="butt" stroke-linejoin="miter" stroke-miterlimit="4" stroke-dasharray="" stroke-opacity="1" fill="none"/><path d="M84.171 246.549 97.9275 280.729" id="path3011" stroke="#000000" stroke-width="1.87547" stroke-linecap="butt" stroke-linejoin="miter" stroke-miterlimit="4" stroke-dasharray="" stroke-opacity="1" fill="none"/><path d="M78.6946 259.208 89.2441 259.208" id="path3013" stroke="#000000" stroke-width="0.628282" stroke-linecap="butt" stroke-linejoin="miter" stroke-miterlimit="4" stroke-dasharray="" stroke-opacity="1" fill="none"/><path d="M76.8191 265.772 91.8229 265.772" id="path3015" stroke="#000000" stroke-width="0.628282" stroke-linecap="butt" stroke-linejoin="miter" stroke-miterlimit="4" stroke-dasharray="" stroke-opacity="1" fill="none"/><path d="M74.4748 271.399 93.6983 271.399" id="path3017" stroke="#000000" stroke-width="0.628282" stroke-linecap="butt" stroke-linejoin="miter" stroke-miterlimit="4" stroke-dasharray="" stroke-opacity="1" fill="none"/><path d="M72.1305 277.025 96.746 277.025" id="path3019" stroke="#000000" stroke-width="0.628282" stroke-linecap="butt" stroke-linejoin="miter" stroke-miterlimit="4" stroke-dasharray="" stroke-opacity="1" fill="none"/><path d="M90.0412 223.331C95.5175 228.563 95.7145 237.247 90.4819 242.723" id="path3021" stroke="#000000" stroke-width="0.628282" stroke-linecap="butt" stroke-linejoin="miter" stroke-miterlimit="4" stroke-dasharray="" stroke-opacity="1" fill="none"/><path d="M95.752 223.331C101.228 228.563 101.425 237.247 96.1927 242.723" id="path3023" stroke="#000000" stroke-width="0.628282" stroke-linecap="butt" stroke-linejoin="miter" stroke-miterlimit="4" stroke-dasharray="" stroke-opacity="1" fill="none"/><path d="M101.453 223.331C106.93 228.563 107.127 237.247 101.894 242.723" id="path3025" stroke="#000000" stroke-width="0.628282" stroke-linecap="butt" stroke-linejoin="miter" stroke-miterlimit="4" stroke-dasharray="" stroke-opacity="1" fill="none"/><path d="M77.2505 242.685C71.7741 237.453 71.5772 228.769 76.8098 223.293" id="path3027" stroke="#000000" stroke-width="0.628282" stroke-linecap="butt" stroke-linejoin="miter" stroke-miterlimit="4" stroke-dasharray="" stroke-opacity="1" fill="none"/><path d="M71.5491 242.685C66.0727 237.453 65.8758 228.769 71.1083 223.293" id="path3029" stroke="#000000" stroke-width="0.628282" stroke-linecap="butt" stroke-linejoin="miter" stroke-miterlimit="4" stroke-dasharray="" stroke-opacity="1" fill="none"/><path d="M65.8477 242.685C60.3713 237.453 60.1744 228.769 65.4069 223.293" id="path3031" stroke="#000000" stroke-width="0.628282" stroke-linecap="butt" stroke-linejoin="miter" stroke-miterlimit="4" stroke-dasharray="" stroke-opacity="1" fill="none"/><path d="M66.1946 155.411C66.1946 152.147 68.839 149.493 72.1117 149.493L95.7614 149.493C99.0247 149.493 101.669 152.147 101.669 155.411L101.669 195.63C101.669 198.893 99.0247 201.538 95.7614 201.538L72.1117 201.538C68.839 201.538 66.1946 198.893 66.1946 195.63Z" id="path3033" stroke="#000000" stroke-width="1.24719" stroke-linecap="butt" stroke-linejoin="miter" stroke-miterlimit="4" stroke-dasharray="" stroke-opacity="1" fill="none"/><path d="M70.255 156.058 97.6087 156.058 97.6087 160.437 70.255 160.437Z" id="path3035" stroke="#000000" stroke-width="0.628282" stroke-linecap="butt" stroke-linejoin="miter" stroke-miterlimit="4" stroke-dasharray="" stroke-opacity="1" fill="none"/><path d="M70.255 162.472 97.6087 162.472 97.6087 167.001 70.255 167.001Z" id="path3037" stroke="#000000" stroke-width="0.628282" stroke-linecap="butt" stroke-linejoin="miter" stroke-miterlimit="4" stroke-dasharray="" stroke-opacity="1" fill="none"/><path d="M70.255 169.036 97.6087 169.036 97.6087 173.565 70.255 173.565Z" id="path3039" stroke="#000000" stroke-width="0.628282" stroke-linecap="butt" stroke-linejoin="miter" stroke-miterlimit="4" stroke-dasharray="" stroke-opacity="1" fill="none"/><path d="M70.255 175.6 97.6087 175.6 97.6087 179.97 70.255 179.97Z" id="path3041" stroke="#000000" stroke-width="0.628282" stroke-linecap="butt" stroke-linejoin="miter" stroke-miterlimit="4" stroke-dasharray="" stroke-opacity="1" fill="none"/><text id="text3043" fill="#000000" font-family="verdana" font-style="normal" font-weight="400" font-size="11.2528" text-anchor="start" x="42.7004" y="136.751">Event Producer</text><text id="text3045" fill="#000000" font-family="verdana" font-style="normal" font-weight="400" font-size="11.2528" text-anchor="start" x="164.979" y="136.751">Message Queue</text><path d="M314.535 174.812C314.535 166.016 321.68 158.871 330.476 158.871 339.291 158.871 346.418 166.016 346.418 174.812 346.418 183.627 339.291 190.754 330.476 190.754 321.68 190.754 314.535 183.627 314.535 174.812" id="path3047" stroke="none" fill="#FFD966" fill-rule="evenodd" fill-opacity="1"/><text id="text3049" fill="#000000" font-family="verdana" font-style="normal" font-weight="400" font-size="11.2528" text-anchor="start" x="317.276" y="129.933">Flink</text><text id="text3051" fill="#000000" font-family="verdana" font-style="normal" font-weight="400" font-size="11.2528" text-anchor="start" x="295.82" y="143.437">Data Source</text><text id="text3053" fill="#000000" font-family="verdana" font-style="normal" font-weight="400" font-size="11.2528" text-anchor="start" x="415.839" y="129.933">Flink</text><text id="text3055" fill="#000000" font-family="verdana" font-style="normal" font-weight="400" font-size="11.2528" text-anchor="start" x="379.53" y="143.437">Window Operator</text><path d="M314.535 248.743C314.535 239.947 321.68 232.802 330.476 232.802 339.291 232.802 346.418 239.947 346.418 248.743 346.418 257.558 339.291 264.685 330.476 264.685 321.68 264.685 314.535 257.558 314.535 248.743" id="path3057" stroke="none" fill="#FFD966" fill-rule="evenodd" fill-opacity="1"/><path d="M408.946 174.812C408.946 166.016 416.11 158.871 424.962 158.871 433.814 158.871 440.979 166.016 440.979 174.812 440.979 183.627 433.814 190.754 424.962 190.754 416.11 190.754 408.946 183.627 408.946 174.812" id="path3059" stroke="none" fill="#FFD966" fill-rule="evenodd" fill-opacity="1"/><path d="M408.946 248.743C408.946 239.947 416.11 232.802 424.962 232.802 433.814 232.802 440.979 239.947 440.979 248.743 440.979 257.558 433.814 264.685 424.962 264.685 416.11 264.685 408.946 257.558 408.946 248.743" id="path3061" stroke="none" fill="#FFD966" fill-rule="evenodd" fill-opacity="1"/><path d="M432.389 169.655C434.808 169.655 436.759 169.824 436.759 170.03L436.759 179.463C436.759 179.651 434.808 179.82 432.389 179.82" id="path3063" stroke="#000000" stroke-width="1.87547" stroke-linecap="butt" stroke-linejoin="miter" stroke-miterlimit="4" stroke-dasharray="" stroke-opacity="1" fill="none"/><path d="M418.623 169.655C416.129 169.655 414.103 169.824 414.103 170.049L414.103 179.445C414.103 179.651 416.129 179.82 418.623 179.82" id="path3065" stroke="#000000" stroke-width="1.87547" stroke-linecap="butt" stroke-linejoin="miter" stroke-miterlimit="4" stroke-dasharray="" stroke-opacity="1" fill="none"/><path d="M432.389 244.055C434.808 244.055 436.759 244.223 436.759 244.43L436.759 253.844C436.759 254.051 434.808 254.22 432.389 254.22" id="path3067" stroke="#000000" stroke-width="1.87547" stroke-linecap="butt" stroke-linejoin="miter" stroke-miterlimit="4" stroke-dasharray="" stroke-opacity="1" fill="none"/><path d="M418.623 244.055C416.129 244.055 414.103 244.223 414.103 244.43L414.103 253.844C414.103 254.051 416.129 254.22 418.623 254.22" id="path3069" stroke="#000000" stroke-width="1.87547" stroke-linecap="butt" stroke-linejoin="miter" stroke-miterlimit="4" stroke-dasharray="" stroke-opacity="1" fill="none"/><path d="M323.612 170.555 331.114 170.555 331.114 166.373 338.616 174.737 331.114 183.102 331.114 178.92 323.612 178.92Z" id="path3071" stroke="#000000" stroke-width="0.618904" stroke-linecap="butt" stroke-linejoin="miter" stroke-miterlimit="4" stroke-dasharray="" stroke-opacity="1" fill="none"/><path d="M323.612 244.636 331.114 244.636 331.114 240.454 338.616 248.818 331.114 257.183 331.114 253.001 323.612 253.001Z" id="path3073" stroke="#000000" stroke-width="0.618904" stroke-linecap="butt" stroke-linejoin="miter" stroke-miterlimit="4" stroke-dasharray="" stroke-opacity="1" fill="none"/><path d="M117.461 174.193 167.17 174.193 167.17 175.441 117.461 175.441ZM159.987 169.899 168.408 174.812 159.987 179.735C159.687 179.904 159.302 179.81 159.133 179.51 158.955 179.21 159.058 178.826 159.358 178.657L166.86 174.278 166.86 175.356 159.358 170.977C159.058 170.808 158.955 170.424 159.133 170.124 159.302 169.824 159.687 169.73 159.987 169.899Z" id="path3075" stroke="#000000" stroke-width="0.00937734" stroke-linecap="butt" stroke-linejoin="round" stroke-dasharray="" stroke-opacity="1" fill="#000000" fill-rule="nonzero" fill-opacity="1"/><path d="M117.461 247.956 167.17 247.956 167.17 249.212 117.461 249.212ZM159.987 243.67 168.408 248.584 159.987 253.498C159.687 253.676 159.302 253.573 159.133 253.272 158.955 252.982 159.058 252.597 159.358 252.419L166.86 248.049 166.86 249.128 159.358 244.748C159.058 244.58 158.955 244.195 159.133 243.895 159.302 243.595 159.687 243.492 159.987 243.67Z" id="path3077" stroke="#000000" stroke-width="0.00937734" stroke-linecap="butt" stroke-linejoin="round" stroke-dasharray="" stroke-opacity="1" fill="#000000" fill-rule="nonzero" fill-opacity="1"/><path d="M117.882 240.848 170.424 192.057 169.58 191.138 117.029 239.929ZM168.079 200.094 170.911 190.754 161.393 192.892C161.056 192.967 160.84 193.295 160.915 193.633 160.99 193.97 161.328 194.186 161.665 194.111L170.142 192.207 169.402 191.42 166.888 199.728C166.785 200.065 166.973 200.412 167.301 200.506 167.629 200.609 167.976 200.422 168.079 200.094Z" id="path3079" stroke="#000000" stroke-width="0.00937734" stroke-linecap="butt" stroke-linejoin="round" stroke-dasharray="" stroke-opacity="1" fill="#000000" fill-rule="nonzero" fill-opacity="1"/><path d="M252.175 174.193 301.894 174.193 301.894 175.45 252.175 175.45ZM294.711 169.899 303.132 174.812 294.711 179.745C294.411 179.914 294.036 179.82 293.848 179.52 293.679 179.22 293.773 178.826 294.073 178.657L301.575 174.287 301.575 175.356 294.073 170.986C293.773 170.818 293.679 170.424 293.848 170.124 294.036 169.824 294.411 169.73 294.711 169.899Z" id="path3081" stroke="#000000" stroke-width="0.0187547" stroke-linecap="butt" stroke-linejoin="round" stroke-dasharray="" stroke-opacity="1" fill="#000000" fill-rule="nonzero" fill-opacity="1"/><path d="M252.175 248.593 301.894 248.593 301.894 249.831 252.175 249.831ZM294.711 244.298 303.132 249.212 294.711 254.126C294.411 254.313 294.036 254.201 293.848 253.901 293.679 253.601 293.773 253.226 294.073 253.057L301.575 248.668 301.575 249.756 294.073 245.386C293.773 245.199 293.679 244.823 293.848 244.523 294.036 244.223 294.411 244.13 294.711 244.298Z" id="path3083" stroke="#000000" stroke-width="0.0187547" stroke-linecap="butt" stroke-linejoin="round" stroke-dasharray="" stroke-opacity="1" fill="#000000" fill-rule="nonzero" fill-opacity="1"/><text id="text3085" fill="#000000" font-family="verdana" font-style="italic" font-weight="400" font-size="4.95123" text-anchor="start" x="189.897" y="177.544">partition 1</text><text id="text3087" fill="#000000" font-family="verdana" font-style="italic" font-weight="400" font-size="4.95123" text-anchor="start" x="189.897" y="251.092">partition 2</text><path d="M352.513 174.193 402.231 174.193 402.231 175.45 352.513 175.45ZM395.048 169.899 403.469 174.812 395.048 179.745C394.748 179.914 394.373 179.82 394.186 179.52 394.017 179.22 394.111 178.826 394.411 178.657L401.913 174.287 401.913 175.356 394.411 170.986C394.111 170.818 394.017 170.424 394.186 170.124 394.373 169.824 394.748 169.73 395.048 169.899Z" id="path3089" stroke="#000000" stroke-width="0.0187547" stroke-linecap="butt" stroke-linejoin="round" stroke-dasharray="" stroke-opacity="1" fill="#000000" fill-rule="nonzero" fill-opacity="1"/><path d="M352.513 248.593 402.231 248.593 402.231 249.831 352.513 249.831ZM395.048 244.298 403.469 249.212 395.048 254.126C394.748 254.313 394.373 254.201 394.186 253.901 394.017 253.601 394.111 253.226 394.411 253.057L401.913 248.668 401.913 249.756 394.411 245.386C394.111 245.199 394.017 244.823 394.186 244.523 394.373 244.223 394.748 244.13 395.048 244.298Z" id="path3091" stroke="#000000" stroke-width="0.0187547" stroke-linecap="butt" stroke-linejoin="round" stroke-dasharray="" stroke-opacity="1" fill="#000000" fill-rule="nonzero" fill-opacity="1"/><path d="M352.982 177.682 408.589 236.309 407.689 237.172 352.063 178.526ZM406.751 228.151 408.983 237.64 399.625 234.902C399.287 234.808 399.099 234.471 399.193 234.133 399.287 233.796 399.643 233.608 399.981 233.702L408.308 236.14 407.52 236.89 405.532 228.432C405.457 228.094 405.664 227.757 406.001 227.682 406.339 227.588 406.676 227.813 406.751 228.151Z" id="path3093" stroke="#000000" stroke-width="0.0187547" stroke-linecap="butt" stroke-linejoin="round" stroke-dasharray="" stroke-opacity="1" fill="#000000" fill-rule="nonzero" fill-opacity="1"/><path d="M352.982 246.905 405.57 192.085 404.67 191.223 352.063 246.024ZM403.694 200.244 405.982 190.754 396.586 193.436C396.267 193.529 396.061 193.886 396.155 194.205 396.249 194.542 396.605 194.73 396.943 194.636L405.288 192.254 404.501 191.504 402.475 199.944C402.381 200.281 402.588 200.619 402.925 200.712 403.263 200.788 403.601 200.581 403.694 200.244Z" id="path3095" stroke="#000000" stroke-width="0.0187547" stroke-linecap="butt" stroke-linejoin="round" stroke-dasharray="" stroke-opacity="1" fill="#000000" fill-rule="nonzero" fill-opacity="1"/><path d="M40.5664 302.982C40.5664 297.974 44.6361 293.904 49.6249 293.904 54.6324 293.904 58.7021 297.974 58.7021 302.982 58.7021 307.989 54.6324 312.04 49.6249 312.04 44.6361 312.04 40.5664 307.989 40.5664 302.982" id="path3097" stroke="#000000" stroke-width="1.25656" stroke-linecap="butt" stroke-linejoin="miter" stroke-miterlimit="4" stroke-dasharray="" stroke-opacity="1" fill="none"/><path d="M49.4748 303.61 49.4748 295.939" id="path3099" stroke="#000000" stroke-width="1.24719" stroke-linecap="butt" stroke-linejoin="miter" stroke-miterlimit="4" stroke-dasharray="" stroke-opacity="1" fill="none"/><path d="M52.8694 306.057 49.4748 303.601" id="path3101" stroke="#000000" stroke-width="1.25656" stroke-linecap="butt" stroke-linejoin="miter" stroke-miterlimit="4" stroke-dasharray="" stroke-opacity="1" fill="none"/><path d="M417.385 302.982C417.385 297.974 421.474 293.904 426.519 293.904 431.583 293.904 435.671 297.974 435.671 302.982 435.671 307.989 431.583 312.04 426.519 312.04 421.474 312.04 417.385 307.989 417.385 302.982" id="path3103" stroke="#000000" stroke-width="1.25656" stroke-linecap="butt" stroke-linejoin="miter" stroke-miterlimit="4" stroke-dasharray="" stroke-opacity="1" fill="none"/><path d="M426.444 303.619 426.444 295.949" id="path3105" stroke="#000000" stroke-width="1.25656" stroke-linecap="butt" stroke-linejoin="miter" stroke-miterlimit="4" stroke-dasharray="" stroke-opacity="1" fill="none"/><path d="M429.838 306.057 426.444 303.601" id="path3107" stroke="#000000" stroke-width="1.25656" stroke-linecap="butt" stroke-linejoin="miter" stroke-miterlimit="4" stroke-dasharray="" stroke-opacity="1" fill="none"/><path d="M297.355 302.982C297.355 297.974 301.406 293.904 306.414 293.904 311.421 293.904 315.472 297.974 315.472 302.982 315.472 307.989 311.421 312.04 306.414 312.04 301.406 312.04 297.355 307.989 297.355 302.982" id="path3109" stroke="#000000" stroke-width="1.25656" stroke-linecap="butt" stroke-linejoin="miter" stroke-miterlimit="4" stroke-dasharray="" stroke-opacity="1" fill="none"/><path d="M306.264 303.619 306.264 295.949" id="path3111" stroke="#000000" stroke-width="1.25656" stroke-linecap="butt" stroke-linejoin="miter" stroke-miterlimit="4" stroke-dasharray="" stroke-opacity="1" fill="none"/><path d="M309.658 306.057 306.264 303.601" id="path3113" stroke="#000000" stroke-width="1.25656" stroke-linecap="butt" stroke-linejoin="miter" stroke-miterlimit="4" stroke-dasharray="" stroke-opacity="1" fill="none"/><text id="text3115" fill="#000000" font-family="verdana" font-style="italic" font-weight="400" font-size="8.70217" text-anchor="start" x="67.702" y="308.118">Event</text><text id="text3117" fill="#000000" font-family="verdana" font-style="italic" font-weight="400" font-size="8.70217" text-anchor="start" x="69.5024" y="318.62">Time</text><text id="text3119" fill="#000000" font-family="verdana" font-style="italic" font-weight="400" font-size="8.70217" text-anchor="start" x="319.485" y="308.115">Ingestion</text><text id="text3121" fill="#000000" font-family="verdana" font-style="italic" font-weight="400" font-size="8.70217" text-anchor="start" x="329.237" y="318.618">Time</text><text id="text3123" fill="#000000" font-family="verdana" font-style="italic" font-weight="400" font-size="8.70217" text-anchor="start" x="443.613" y="309.505">Window</text><text id="text3125" fill="#000000" font-family="verdana" font-style="italic" font-weight="400" font-size="8.70217" text-anchor="start" x="437.462" y="320.007">Processing</text><text id="text3127" fill="#000000" font-family="verdana" font-style="italic" font-weight="400" font-size="8.70217" text-anchor="start" x="449.915" y="330.51">Time</text><path d="M307.352 271.399 307.352 270.161 308.608 270.161 308.608 271.399 307.352 271.399ZM307.352 268.904 307.352 267.648 308.608 267.648 308.608 268.904 307.352 268.904ZM307.352 266.41 307.352 265.154 308.608 265.154 308.608 266.41 307.352 266.41ZM307.352 263.897 307.352 262.659 308.608 262.659 308.608 263.897 307.352 263.897ZM307.352 261.403 307.352 260.146 308.608 260.146 308.608 261.403 307.352 261.403ZM307.352 258.908 307.352 257.652 308.608 257.652 308.608 258.908 307.352 258.908ZM307.352 256.395 307.352 255.157 308.608 255.157 308.608 256.395 307.352 256.395ZM307.352 253.901 307.352 252.644 308.608 252.644 308.608 253.901 307.352 253.901ZM307.352 251.406 307.352 250.15 308.608 250.15 308.608 251.406 307.352 251.406ZM307.352 248.893 307.352 247.655 308.608 247.655 308.608 248.893 307.352 248.893ZM307.352 246.399 307.352 245.142 308.608 245.142 308.608 246.399 307.352 246.399ZM307.352 243.905 307.352 242.648 308.608 242.648 308.608 243.905 307.352 243.905ZM307.352 241.391 307.352 240.154 308.608 240.154 308.608 241.391 307.352 241.391ZM307.352 238.897 307.352 237.64 308.608 237.64 308.608 238.897 307.352 238.897ZM307.352 236.403 307.352 235.146 308.608 235.146 308.608 236.403 307.352 236.403ZM307.352 233.89 307.352 232.652 308.608 232.652 308.608 233.89 307.352 233.89ZM307.352 231.395 307.352 230.139 308.608 230.139 308.608 231.395 307.352 231.395ZM307.352 228.901 307.352 227.644 308.608 227.644 308.608 228.901 307.352 228.901ZM307.352 226.388 307.352 225.15 308.608 225.15 308.608 226.388 307.352 226.388ZM307.352 223.893 307.352 222.637 308.608 222.637 308.608 223.893 307.352 223.893ZM307.352 221.399 307.352 220.142 308.608 220.142 308.608 221.399 307.352 221.399ZM307.352 218.886 307.352 217.648 308.608 217.648 308.608 218.886 307.352 218.886ZM307.352 216.391 307.352 215.135 308.608 215.135 308.608 216.391 307.352 216.391ZM307.352 213.897 307.352 212.64 308.608 212.64 308.608 213.897 307.352 213.897ZM307.352 211.384 307.352 210.146 308.608 210.146 308.608 211.384 307.352 211.384ZM307.352 208.89 307.352 207.633 308.608 207.633 308.608 208.89 307.352 208.89ZM307.352 206.395 307.352 205.139 308.608 205.139 308.608 206.395 307.352 206.395ZM307.352 203.882 307.352 202.644 308.608 202.644 308.608 203.882 307.352 203.882ZM307.352 201.388 307.352 200.131 308.608 200.131 308.608 201.388 307.352 201.388ZM307.352 198.893 307.352 197.637 308.608 197.637 308.608 198.893 307.352 198.893ZM307.352 196.38 307.352 195.142 308.608 195.142 308.608 196.38 307.352 196.38ZM307.352 193.886 307.352 192.629 308.608 192.629 308.608 193.886 307.352 193.886ZM307.352 191.391 307.352 190.135 308.608 190.135 308.608 191.391 307.352 191.391ZM307.352 188.878 307.352 187.641 308.608 187.641 308.608 188.878 307.352 188.878ZM307.352 186.384 307.352 185.127 308.608 185.127 308.608 186.384 307.352 186.384ZM307.352 183.89 307.352 182.633 308.608 182.633 308.608 183.89 307.352 183.89ZM307.352 181.376 307.352 180.139 308.608 180.139 308.608 181.376 307.352 181.376ZM307.352 178.882 307.352 177.626 308.608 177.626 308.608 178.882 307.352 178.882ZM307.352 176.388 307.352 175.131 308.608 175.131 308.608 176.388 307.352 176.388ZM307.352 173.875 307.352 172.637 308.608 172.637 308.608 173.875 307.352 173.875ZM307.352 171.38 307.352 170.124 308.608 170.124 308.608 171.38 307.352 171.38ZM307.352 168.886 307.352 167.629 308.608 167.629 308.608 168.886 307.352 168.886ZM307.352 166.373 307.352 165.135 308.608 165.135 308.608 166.373 307.352 166.373ZM307.352 163.878 307.352 162.622 308.608 162.622 308.608 163.878 307.352 163.878ZM307.352 161.384 307.352 160.127 308.608 160.127 308.608 161.384 307.352 161.384ZM307.352 158.871 307.352 157.633 308.608 157.633 308.608 158.871 307.352 158.871ZM307.352 156.376 307.352 155.12 308.608 155.12 308.608 156.376 307.352 156.376ZM307.352 153.882 307.352 152.626 308.608 152.626 308.608 153.882 307.352 153.882ZM307.352 151.369 307.352 149.962 308.439 149.962 308.439 151.219 307.97 151.219 308.608 150.6 308.608 151.369 307.352 151.369ZM309.696 149.962 310.952 149.962 310.952 151.219 309.696 151.219 309.696 149.962ZM312.19 149.962 313.447 149.962 313.447 151.219 312.19 151.219 312.19 149.962ZM314.703 149.962 315.941 149.962 315.941 151.219 314.703 151.219 314.703 149.962ZM317.198 149.962 318.454 149.962 318.454 151.219 317.198 151.219 317.198 149.962ZM319.692 149.962 320.949 149.962 320.949 151.219 319.692 151.219 319.692 149.962ZM322.205 149.962 323.443 149.962 323.443 151.219 322.205 151.219 322.205 149.962ZM324.7 149.962 325.956 149.962 325.956 151.219 324.7 151.219 324.7 149.962ZM327.194 149.962 328.451 149.962 328.451 151.219 327.194 151.219 327.194 149.962ZM329.707 149.962 330.945 149.962 330.945 151.219 329.707 151.219 329.707 149.962ZM332.202 149.962 333.458 149.962 333.458 151.219 332.202 151.219 332.202 149.962ZM334.696 149.962 335.952 149.962 335.952 151.219 334.696 151.219 334.696 149.962ZM337.209 149.962 338.447 149.962 338.447 151.219 337.209 151.219 337.209 149.962ZM339.703 149.962 340.96 149.962 340.96 151.219 339.703 151.219 339.703 149.962ZM342.198 149.962 343.454 149.962 343.454 151.219 342.198 151.219 342.198 149.962ZM344.711 149.962 345.949 149.962 345.949 151.219 344.711 151.219 344.711 149.962ZM347.205 149.962 348.462 149.962 348.462 151.219 347.205 151.219 347.205 149.962ZM349.7 149.962 350.956 149.962 350.956 151.219 349.7 151.219 349.7 149.962ZM352.213 149.962 353.451 149.962 353.451 151.219 352.213 151.219 352.213 149.962ZM354.707 149.962 355.964 149.962 355.964 151.219 354.707 151.219 354.707 149.962ZM357.201 149.962 358.458 149.962 358.458 151.219 357.201 151.219 357.201 149.962ZM359.715 149.962 360.952 149.962 360.952 151.219 359.715 151.219 359.715 149.962ZM362.209 149.962 363.466 149.962 363.466 151.219 362.209 151.219 362.209 149.962ZM364.703 149.962 365.96 149.962 365.96 151.219 364.703 151.219 364.703 149.962ZM367.216 149.962 368.454 149.962 368.454 151.219 367.216 151.219 367.216 149.962ZM369.711 149.962 370.967 149.962 370.967 151.219 369.711 151.219 369.711 149.962ZM372.205 149.962 373.462 149.962 373.462 151.219 372.205 151.219 372.205 149.962ZM374.718 149.962 375.956 149.962 375.956 151.219 374.718 151.219 374.718 149.962ZM377.213 149.962 378.469 149.962 378.469 151.219 377.213 151.219 377.213 149.962ZM379.707 149.962 380.964 149.962 380.964 151.219 379.707 151.219 379.707 149.962ZM382.22 149.962 383.458 149.962 383.458 151.219 382.22 151.219 382.22 149.962ZM384.715 149.962 385.971 149.962 385.971 151.219 384.715 151.219 384.715 149.962ZM387.209 149.962 388.466 149.962 388.466 151.219 387.209 151.219 387.209 149.962ZM389.722 149.962 390.96 149.962 390.96 151.219 389.722 151.219 389.722 149.962ZM392.216 149.962 393.473 149.962 393.473 151.219 392.216 151.219 392.216 149.962ZM394.711 149.962 395.967 149.962 395.967 151.219 394.711 151.219 394.711 149.962ZM397.224 149.962 398.462 149.962 398.462 151.219 397.224 151.219 397.224 149.962ZM399.718 149.962 400.975 149.962 400.975 151.219 399.718 151.219 399.718 149.962ZM402.213 149.962 403.469 149.962 403.469 151.219 402.213 151.219 402.213 149.962ZM404.726 149.962 405.964 149.962 405.964 151.219 404.726 151.219 404.726 149.962ZM407.22 149.962 408.477 149.962 408.477 151.219 407.22 151.219 407.22 149.962ZM409.715 149.962 410.971 149.962 410.971 151.219 409.715 151.219 409.715 149.962ZM412.228 149.962 413.466 149.962 413.466 151.219 412.228 151.219 412.228 149.962ZM414.722 149.962 415.979 149.962 415.979 151.219 414.722 151.219 414.722 149.962ZM417.216 149.962 418.473 149.962 418.473 151.219 417.216 151.219 417.216 149.962ZM419.73 149.962 420.967 149.962 420.967 151.219 419.73 151.219 419.73 149.962ZM422.224 149.962 423.48 149.962 423.48 151.219 422.224 151.219 422.224 149.962ZM424.718 149.962 425.975 149.962 425.975 151.219 424.718 151.219 424.718 149.962ZM427.231 149.962 428.469 149.962 428.469 151.219 427.231 151.219 427.231 149.962ZM429.726 149.962 430.982 149.962 430.982 151.219 429.726 151.219 429.726 149.962ZM432.22 149.962 433.477 149.962 433.477 151.219 432.22 151.219 432.22 149.962ZM434.733 149.962 435.971 149.962 435.971 151.219 434.733 151.219 434.733 149.962ZM437.228 149.962 438.484 149.962 438.484 151.219 437.228 151.219 437.228 149.962ZM439.722 149.962 440.979 149.962 440.979 151.219 439.722 151.219 439.722 149.962ZM442.235 149.962 443.473 149.962 443.473 151.219 442.235 151.219 442.235 149.962ZM444.73 149.962 445.986 149.962 445.986 151.219 444.73 151.219 444.73 149.962ZM447.224 149.962 448.48 149.962 448.48 151.219 447.224 151.219 447.224 149.962ZM449.737 149.962 450.675 149.962 450.675 151.538 449.418 151.538 449.418 150.6 450.037 151.219 449.737 151.219 449.737 149.962ZM450.675 152.776 450.675 154.032 449.418 154.032 449.418 152.776 450.675 152.776ZM450.675 155.289 450.675 156.526 449.418 156.526 449.418 155.289 450.675 155.289ZM450.675 157.783 450.675 159.04 449.418 159.04 449.418 157.783 450.675 157.783ZM450.675 160.277 450.675 161.534 449.418 161.534 449.418 160.277 450.675 160.277ZM450.675 162.791 450.675 164.028 449.418 164.028 449.418 162.791 450.675 162.791ZM450.675 165.285 450.675 166.541 449.418 166.541 449.418 165.285 450.675 165.285ZM450.675 167.779 450.675 169.036 449.418 169.036 449.418 167.779 450.675 167.779ZM450.675 170.292 450.675 171.53 449.418 171.53 449.418 170.292 450.675 170.292ZM450.675 172.787 450.675 174.043 449.418 174.043 449.418 172.787 450.675 172.787ZM450.675 175.281 450.675 176.538 449.418 176.538 449.418 175.281 450.675 175.281ZM450.675 177.794 450.675 179.032 449.418 179.032 449.418 177.794 450.675 177.794ZM450.675 180.289 450.675 181.545 449.418 181.545 449.418 180.289 450.675 180.289ZM450.675 182.783 450.675 184.04 449.418 184.04 449.418 182.783 450.675 182.783ZM450.675 185.296 450.675 186.534 449.418 186.534 449.418 185.296 450.675 185.296ZM450.675 187.791 450.675 189.047 449.418 189.047 449.418 187.791 450.675 187.791ZM450.675 190.285 450.675 191.541 449.418 191.541 449.418 190.285 450.675 190.285ZM450.675 192.798 450.675 194.036 449.418 194.036 449.418 192.798 450.675 192.798ZM450.675 195.292 450.675 196.549 449.418 196.549 449.418 195.292 450.675 195.292ZM450.675 197.787 450.675 199.043 449.418 199.043 449.418 197.787 450.675 197.787ZM450.675 200.3 450.675 201.538 449.418 201.538 449.418 200.3 450.675 200.3ZM450.675 202.794 450.675 204.051 449.418 204.051 449.418 202.794 450.675 202.794ZM450.675 205.289 450.675 206.545 449.418 206.545 449.418 205.289 450.675 205.289ZM450.675 207.802 450.675 209.04 449.418 209.04 449.418 207.802 450.675 207.802ZM450.675 210.296 450.675 211.553 449.418 211.553 449.418 210.296 450.675 210.296ZM450.675 212.791 450.675 214.047 449.418 214.047 449.418 212.791 450.675 212.791ZM450.675 215.304 450.675 216.541 449.418 216.541 449.418 215.304 450.675 215.304ZM450.675 217.798 450.675 219.055 449.418 219.055 449.418 217.798 450.675 217.798ZM450.675 220.292 450.675 221.549 449.418 221.549 449.418 220.292 450.675 220.292ZM450.675 222.806 450.675 224.043 449.418 224.043 449.418 222.806 450.675 222.806ZM450.675 225.3 450.675 226.556 449.418 226.556 449.418 225.3 450.675 225.3ZM450.675 227.794 450.675 229.051 449.418 229.051 449.418 227.794 450.675 227.794ZM450.675 230.307 450.675 231.545 449.418 231.545 449.418 230.307 450.675 230.307ZM450.675 232.802 450.675 234.058 449.418 234.058 449.418 232.802 450.675 232.802ZM450.675 235.296 450.675 236.553 449.418 236.553 449.418 235.296 450.675 235.296ZM450.675 237.809 450.675 239.047 449.418 239.047 449.418 237.809 450.675 237.809ZM450.675 240.304 450.675 241.56 449.418 241.56 449.418 240.304 450.675 240.304ZM450.675 242.798 450.675 244.055 449.418 244.055 449.418 242.798 450.675 242.798ZM450.675 245.311 450.675 246.549 449.418 246.549 449.418 245.311 450.675 245.311ZM450.675 247.805 450.675 249.062 449.418 249.062 449.418 247.805 450.675 247.805ZM450.675 250.3 450.675 251.556 449.418 251.556 449.418 250.3 450.675 250.3ZM450.675 252.813 450.675 254.051 449.418 254.051 449.418 252.813 450.675 252.813ZM450.675 255.307 450.675 256.564 449.418 256.564 449.418 255.307 450.675 255.307ZM450.675 257.802 450.675 259.058 449.418 259.058 449.418 257.802 450.675 257.802ZM450.675 260.315 450.675 261.553 449.418 261.553 449.418 260.315 450.675 260.315ZM450.675 262.809 450.675 264.066 449.418 264.066 449.418 262.809 450.675 262.809ZM450.675 265.304 450.675 266.56 449.418 266.56 449.418 265.304 450.675 265.304ZM450.675 267.817 450.675 269.055 449.418 269.055 449.418 267.817 450.675 267.817ZM450.675 270.311 450.675 272.037 449.887 272.037 449.887 270.78 450.037 270.78 449.418 271.399 449.418 270.311 450.675 270.311ZM448.631 272.037 447.393 272.037 447.393 270.78 448.631 270.78 448.631 272.037ZM446.136 272.037 444.88 272.037 444.88 270.78 446.136 270.78 446.136 272.037ZM443.642 272.037 442.385 272.037 442.385 270.78 443.642 270.78 443.642 272.037ZM441.129 272.037 439.891 272.037 439.891 270.78 441.129 270.78 441.129 272.037ZM438.634 272.037 437.378 272.037 437.378 270.78 438.634 270.78 438.634 272.037ZM436.14 272.037 434.883 272.037 434.883 270.78 436.14 270.78 436.14 272.037ZM433.627 272.037 432.389 272.037 432.389 270.78 433.627 270.78 433.627 272.037ZM431.132 272.037 429.876 272.037 429.876 270.78 431.132 270.78 431.132 272.037ZM428.638 272.037 427.381 272.037 427.381 270.78 428.638 270.78 428.638 272.037ZM426.125 272.037 424.887 272.037 424.887 270.78 426.125 270.78 426.125 272.037ZM423.631 272.037 422.374 272.037 422.374 270.78 423.631 270.78 423.631 272.037ZM421.136 272.037 419.88 272.037 419.88 270.78 421.136 270.78 421.136 272.037ZM418.623 272.037 417.385 272.037 417.385 270.78 418.623 270.78 418.623 272.037ZM416.129 272.037 414.872 272.037 414.872 270.78 416.129 270.78 416.129 272.037ZM413.634 272.037 412.378 272.037 412.378 270.78 413.634 270.78 413.634 272.037ZM411.121 272.037 409.883 272.037 409.883 270.78 411.121 270.78 411.121 272.037ZM408.627 272.037 407.37 272.037 407.37 270.78 408.627 270.78 408.627 272.037ZM406.132 272.037 404.876 272.037 404.876 270.78 406.132 270.78 406.132 272.037ZM403.619 272.037 402.382 272.037 402.382 270.78 403.619 270.78 403.619 272.037ZM401.125 272.037 399.868 272.037 399.868 270.78 401.125 270.78 401.125 272.037ZM398.631 272.037 397.374 272.037 397.374 270.78 398.631 270.78 398.631 272.037ZM396.117 272.037 394.88 272.037 394.88 270.78 396.117 270.78 396.117 272.037ZM393.623 272.037 392.366 272.037 392.366 270.78 393.623 270.78 393.623 272.037ZM391.129 272.037 389.872 272.037 389.872 270.78 391.129 270.78 391.129 272.037ZM388.616 272.037 387.378 272.037 387.378 270.78 388.616 270.78 388.616 272.037ZM386.121 272.037 384.865 272.037 384.865 270.78 386.121 270.78 386.121 272.037ZM383.627 272.037 382.37 272.037 382.37 270.78 383.627 270.78 383.627 272.037ZM381.114 272.037 379.876 272.037 379.876 270.78 381.114 270.78 381.114 272.037ZM378.619 272.037 377.363 272.037 377.363 270.78 378.619 270.78 378.619 272.037ZM376.125 272.037 374.868 272.037 374.868 270.78 376.125 270.78 376.125 272.037ZM373.612 272.037 372.374 272.037 372.374 270.78 373.612 270.78 373.612 272.037ZM371.117 272.037 369.861 272.037 369.861 270.78 371.117 270.78 371.117 272.037ZM368.623 272.037 367.367 272.037 367.367 270.78 368.623 270.78 368.623 272.037ZM366.11 272.037 364.872 272.037 364.872 270.78 366.11 270.78 366.11 272.037ZM363.616 272.037 362.359 272.037 362.359 270.78 363.616 270.78 363.616 272.037ZM361.121 272.037 359.865 272.037 359.865 270.78 361.121 270.78 361.121 272.037ZM358.608 272.037 357.37 272.037 357.37 270.78 358.608 270.78 358.608 272.037ZM356.114 272.037 354.857 272.037 354.857 270.78 356.114 270.78 356.114 272.037ZM353.619 272.037 352.363 272.037 352.363 270.78 353.619 270.78 353.619 272.037ZM351.106 272.037 349.868 272.037 349.868 270.78 351.106 270.78 351.106 272.037ZM348.612 272.037 347.355 272.037 347.355 270.78 348.612 270.78 348.612 272.037ZM346.117 272.037 344.861 272.037 344.861 270.78 346.117 270.78 346.117 272.037ZM343.604 272.037 342.367 272.037 342.367 270.78 343.604 270.78 343.604 272.037ZM341.11 272.037 339.853 272.037 339.853 270.78 341.11 270.78 341.11 272.037ZM338.616 272.037 337.359 272.037 337.359 270.78 338.616 270.78 338.616 272.037ZM336.102 272.037 334.865 272.037 334.865 270.78 336.102 270.78 336.102 272.037ZM333.608 272.037 332.352 272.037 332.352 270.78 333.608 270.78 333.608 272.037ZM331.114 272.037 329.857 272.037 329.857 270.78 331.114 270.78 331.114 272.037ZM328.601 272.037 327.363 272.037 327.363 270.78 328.601 270.78 328.601 272.037ZM326.106 272.037 324.85 272.037 324.85 270.78 326.106 270.78 326.106 272.037ZM323.612 272.037 322.355 272.037 322.355 270.78 323.612 270.78 323.612 272.037ZM321.099 272.037 319.861 272.037 319.861 270.78 321.099 270.78 321.099 272.037ZM318.604 272.037 317.348 272.037 317.348 270.78 318.604 270.78 318.604 272.037ZM316.11 272.037 314.853 272.037 314.853 270.78 316.11 270.78 316.11 272.037ZM313.597 272.037 312.359 272.037 312.359 270.78 313.597 270.78 313.597 272.037ZM311.103 272.037 309.846 272.037 309.846 270.78 311.103 270.78 311.103 272.037ZM308.608 272.037 307.97 272.037 307.97 270.78 308.608 270.78 308.608 272.037Z" id="path3129" stroke="#000000" stroke-width="0.0187547" stroke-linecap="butt" stroke-linejoin="round" stroke-dasharray="" stroke-opacity="1" fill="#000000" fill-rule="nonzero" fill-opacity="1"/><path d="M70.9771 294.514 83.7302 269.026 82.6143 268.464 69.8612 293.961ZM85.4088 269.861C86.0277 268.633 85.5213 267.132 84.2929 266.513 83.0551 265.894 81.5547 266.391 80.9358 267.629 80.3169 268.867 80.8139 270.367 82.0517 270.986 83.2895 271.605 84.7899 271.099 85.4088 269.861Z" id="path3131" stroke="#000000" stroke-width="0.00937734" stroke-linecap="butt" stroke-linejoin="round" stroke-dasharray="" stroke-opacity="1" fill="#000000" fill-rule="nonzero" fill-opacity="1"/><path d="M325.787 293.192 332.164 261.215 330.926 260.971 324.55 292.948ZM334.002 261.59C334.265 260.221 333.383 258.908 332.033 258.646 330.682 258.364 329.37 259.246 329.088 260.596 328.826 261.965 329.707 263.278 331.057 263.541 332.408 263.822 333.739 262.941 334.002 261.59Z" id="path3133" stroke="#000000" stroke-width="0.0187547" stroke-linecap="butt" stroke-linejoin="round" stroke-dasharray="" stroke-opacity="1" fill="#000000" fill-rule="nonzero" fill-opacity="1"/><path d="M440.435 294.073 425.862 257.577 427.025 257.108 441.598 293.604ZM424.118 258.271C423.612 256.995 424.231 255.532 425.525 255.026 426.8 254.501 428.263 255.139 428.769 256.414 429.276 257.689 428.657 259.152 427.381 259.658 426.087 260.184 424.643 259.546 424.118 258.271Z" id="path3135" stroke="#000000" stroke-width="0.0187547" stroke-linecap="butt" stroke-linejoin="round" stroke-dasharray="" stroke-opacity="1" fill="#000000" fill-rule="nonzero" fill-opacity="1"/></g></g></svg>