<svg width="851.091" height="613.162" xmlns="http://www.w3.org/2000/svg" xmlns:xlink="http://www.w3.org/1999/xlink" id="svg2" overflow="hidden"><defs id="defs4"></defs><g id="layer1" transform="translate(50.5489 -225.781)"><g id="g2989" transform="translate(-391.174 218.443)"><path d="M341.26 269.373 341.26 478.807 605.701 478.807 605.701 269.373 341.26 269.373Z" id="path2991" stroke="none" fill="#FFFFFF" fill-rule="evenodd" fill-opacity="1"/><path d="M341.26 269.373 605.701 269.373 605.701 478.807 341.26 478.807Z" id="path2993" stroke="#000000" stroke-width="1.25656" stroke-linecap="butt" stroke-linejoin="miter" stroke-miterlimit="4" stroke-dasharray="" stroke-opacity="1" fill="none"/><text id="text2995" fill="#000000" font-family="verdana" font-style="normal" font-weight="400" font-size="17.5544" text-anchor="start" x="350.337" y="291.348">Flink Program</text><path d="M495.686 390.96 495.686 472.393 600.712 472.393 600.712 390.96 495.686 390.96Z" id="path2997" stroke="none" fill="#E4EAF4" fill-rule="evenodd" fill-opacity="1"/><path d="M495.686 390.96 600.712 390.96 600.712 472.393 495.686 472.393Z" id="path2999" stroke="#898C92" stroke-width="1.25656" stroke-linecap="butt" stroke-linejoin="miter" stroke-miterlimit="4" stroke-dasharray="" stroke-opacity="1" fill="none"/><text id="text3001" fill="#000000" font-family="verdana" font-style="normal" font-weight="400" font-size="17.5544" text-anchor="start" x="504.733" y="413.007">Client</text><path d="M943.285 29.9325 943.285 281.883 1147.41 281.883 1147.41 29.9325 943.285 29.9325Z" id="path3003" stroke="none" fill="#F5A030" fill-rule="evenodd" fill-opacity="1"/><path d="M943.285 29.9325 1147.41 29.9325 1147.41 281.883 943.285 281.883Z" id="path3005" stroke="#935F1C" stroke-width="1.23781" stroke-linecap="butt" stroke-linejoin="miter" stroke-miterlimit="4" stroke-dasharray="" stroke-opacity="1" fill="none"/><text id="text3007" fill="#000000" font-family="verdana" font-style="normal" font-weight="400" font-size="17.5544" text-anchor="start" x="952.298" y="51.8773">TaskManager</text><path d="M1018.64 77.3068 1018.64 165.604 1072.54 165.604 1072.54 77.3068 1018.64 77.3068Z" id="path3009" stroke="none" fill="#E4EAF4" fill-rule="evenodd" fill-opacity="1"/><path d="M1018.64 77.3068 1072.54 77.3068 1072.54 165.604 1018.64 165.604Z" id="path3011" stroke="#898C92" stroke-width="1.23781" stroke-linecap="butt" stroke-linejoin="miter" stroke-miterlimit="4" stroke-dasharray="" stroke-opacity="1" fill="none"/><text id="text3013" fill="#000000" font-family="verdana" font-style="normal" font-weight="400" font-size="15.0037" text-anchor="start" x="1029.11" y="96.7069">Task</text><text id="text3015" fill="#000000" font-family="verdana" font-style="normal" font-weight="400" font-size="15.0037" text-anchor="start" x="1031.06" y="114.711">Slot</text><path d="M1083.01 77.3068 1083.01 165.604 1136.95 165.604 1136.95 77.3068 1083.01 77.3068Z" id="path3017" stroke="none" fill="#E4EAF4" fill-rule="evenodd" fill-opacity="1"/><path d="M1083.01 77.3068 1136.95 77.3068 1136.95 165.604 1083.01 165.604Z" id="path3019" stroke="#898C92" stroke-width="1.23781" stroke-linecap="butt" stroke-linejoin="miter" stroke-miterlimit="4" stroke-dasharray="" stroke-opacity="1" fill="none"/><text id="text3021" fill="#000000" font-family="verdana" font-style="normal" font-weight="400" font-size="15.0037" text-anchor="start" x="1093.47" y="96.7069">Task</text><text id="text3023" fill="#000000" font-family="verdana" font-style="normal" font-weight="400" font-size="15.0037" text-anchor="start" x="1095.42" y="114.711">Slot</text><path d="M1026.59 139.91C1026.59 129.407 1035.11 120.893 1045.61 120.893 1056.08 120.893 1064.59 129.407 1064.59 139.91 1064.59 150.375 1056.08 158.89 1045.61 158.89 1035.11 158.89 1026.59 150.375 1026.59 139.91" id="path3025" stroke="none" fill="#BE73F1" fill-rule="evenodd" fill-opacity="1"/><path d="M1026.59 139.91C1026.59 129.407 1035.11 120.893 1045.61 120.893 1056.08 120.893 1064.59 129.407 1064.59 139.91 1064.59 150.375 1056.08 158.89 1045.61 158.89 1035.11 158.89 1026.59 150.375 1026.59 139.91" id="path3027" stroke="#724591" stroke-width="1.23781" stroke-linecap="butt" stroke-linejoin="miter" stroke-miterlimit="4" stroke-dasharray="" stroke-opacity="1" fill="none"/><text id="text3029" fill="#000000" font-family="verdana" font-style="normal" font-weight="400" font-size="11.2528" text-anchor="start" x="1032.57" y="144.369">Task</text><path d="M953.788 77.3068 953.788 165.604 1007.54 165.604 1007.54 77.3068 953.788 77.3068Z" id="path3031" stroke="none" fill="#E4EAF4" fill-rule="evenodd" fill-opacity="1"/><path d="M953.788 77.3068 1007.54 77.3068 1007.54 165.604 953.788 165.604Z" id="path3033" stroke="#898C92" stroke-width="1.23781" stroke-linecap="butt" stroke-linejoin="miter" stroke-miterlimit="4" stroke-dasharray="" stroke-opacity="1" fill="none"/><text id="text3035" fill="#000000" font-family="verdana" font-style="normal" font-weight="400" font-size="15.0037" text-anchor="start" x="964.168" y="96.7069">Task</text><text id="text3037" fill="#000000" font-family="verdana" font-style="normal" font-weight="400" font-size="15.0037" text-anchor="start" x="966.119" y="114.711">Slot</text><path d="M961.59 139.91C961.59 129.407 970.142 120.893 980.644 120.893 991.184 120.893 999.737 129.407 999.737 139.91 999.737 150.375 991.184 158.89 980.644 158.89 970.142 158.89 961.59 150.375 961.59 139.91" id="path3039" stroke="none" fill="#BE73F1" fill-rule="evenodd" fill-opacity="1"/><path d="M961.59 139.91C961.59 129.407 970.142 120.893 980.644 120.893 991.184 120.893 999.737 129.407 999.737 139.91 999.737 150.375 991.184 158.89 980.644 158.89 970.142 158.89 961.59 150.375 961.59 139.91" id="path3041" stroke="#724591" stroke-width="1.23781" stroke-linecap="butt" stroke-linejoin="miter" stroke-miterlimit="4" stroke-dasharray="" stroke-opacity="1" fill="none"/><text id="text3043" fill="#000000" font-family="verdana" font-style="normal" font-weight="400" font-size="11.2528" text-anchor="start" x="967.635" y="144.369">Task</text><path d="M951.274 206.714 951.274 238.447 1139.76 238.447 1139.76 206.714 951.274 206.714Z" id="path3045" stroke="none" fill="#B8BEC6" fill-rule="evenodd" fill-opacity="1"/><path d="M951.274 206.714 1139.76 206.714 1139.76 238.447 951.274 238.447Z" id="path3047" stroke="#6E7277" stroke-width="1.23781" stroke-linecap="butt" stroke-linejoin="miter" stroke-miterlimit="4" stroke-dasharray="" stroke-opacity="1" fill="none"/><text id="text3049" fill="#000000" font-family="verdana" font-style="normal" font-weight="400" font-size="13.2033" text-anchor="start" x="987.118" y="227.8">Network Manager</text><path d="M951.274 243.286 951.274 275.806 1139.76 275.806 1139.76 243.286 951.274 243.286Z" id="path3051" stroke="none" fill="#B8BEC6" fill-rule="evenodd" fill-opacity="1"/><path d="M951.274 243.286 1139.76 243.286 1139.76 275.806 951.274 275.806Z" id="path3053" stroke="#6E7277" stroke-width="1.23781" stroke-linecap="butt" stroke-linejoin="miter" stroke-miterlimit="4" stroke-dasharray="" stroke-opacity="1" fill="none"/><text id="text3055" fill="#000000" font-family="verdana" font-style="normal" font-weight="400" font-size="13.2033" text-anchor="start" x="1001.08" y="264.771">Actor System</text><path d="M951.274 170.442 951.274 202.175 1139.76 202.175 1139.76 170.442 951.274 170.442Z" id="path3057" stroke="none" fill="#B8BEC6" fill-rule="evenodd" fill-opacity="1"/><path d="M951.274 170.442 1139.76 170.442 1139.76 202.175 951.274 202.175Z" id="path3059" stroke="#6E7277" stroke-width="1.23781" stroke-linecap="butt" stroke-linejoin="miter" stroke-miterlimit="4" stroke-dasharray="" stroke-opacity="1" fill="none"/><text id="text3061" fill="#000000" font-family="verdana" font-style="normal" font-weight="400" font-size="13.2033" text-anchor="start" x="967.764" y="191.528">Memory &amp; I/O Manager</text><path d="M804.988 438.484 804.988 596.661 1005.51 596.661 1005.51 438.484 804.988 438.484Z" id="path3063" stroke="none" fill="#F5A030" fill-rule="evenodd" fill-opacity="1"/><path d="M804.988 438.484 1005.51 438.484 1005.51 596.661 804.988 596.661Z" id="path3065" stroke="#935F1C" stroke-width="1.23781" stroke-linecap="butt" stroke-linejoin="miter" stroke-miterlimit="4" stroke-dasharray="" stroke-opacity="1" fill="none"/><text id="text3067" fill="#000000" font-family="verdana" font-style="normal" font-weight="400" font-size="17.5544" text-anchor="start" x="814.047" y="460.434">JobManager</text><text id="text3069" fill="#000000" font-family="verdana" font-style="italic" font-weight="400" font-size="13.8034" text-anchor="start" x="1006.62" y="17.8258">(Worker)</text><text id="text3071" fill="#000000" font-family="verdana" font-style="italic" font-weight="400" font-size="13.8034" text-anchor="start" x="782.641" y="617.723">(Master / YARN Application Master)</text><path d="M811.252 517.554 811.252 574.005 900.337 574.005 900.337 517.554 811.252 517.554Z" id="path3073" stroke="none" fill="#E4EAF4" fill-rule="evenodd" fill-opacity="1"/><path d="M811.252 517.554 900.337 517.554 900.337 574.005 811.252 574.005Z" id="path3075" stroke="#898C92" stroke-width="1.23781" stroke-linecap="butt" stroke-linejoin="miter" stroke-miterlimit="4" stroke-dasharray="" stroke-opacity="1" fill="none"/><text id="text3077" fill="#000000" font-family="verdana" font-style="normal" font-weight="400" font-size="10.0525" text-anchor="start" x="816.611" y="532.033">Dataflow Graph</text><path d="M820.329 554.913C821.267 552.438 824.005 551.162 826.481 552.063 828.994 552.963 830.269 555.738 829.332 558.214 828.431 560.69 825.693 561.965 823.18 561.065 820.704 560.165 819.429 557.389 820.329 554.913" id="path3079" stroke="none" fill="#F5A030" fill-rule="evenodd" fill-opacity="1"/><path d="M820.329 554.913C821.267 552.438 824.005 551.162 826.481 552.063 828.994 552.963 830.269 555.738 829.332 558.214 828.431 560.69 825.693 561.965 823.18 561.065 820.704 560.165 819.429 557.389 820.329 554.913" id="path3081" stroke="#000000" stroke-width="0.637659" stroke-linecap="butt" stroke-linejoin="miter" stroke-miterlimit="4" stroke-dasharray="" stroke-opacity="1" fill="none"/><path d="M847.974 550.825C848.386 548.237 850.862 546.436 853.488 546.886 856.113 547.299 857.876 549.774 857.426 552.4 857.013 554.988 854.538 556.789 851.912 556.339 849.324 555.926 847.561 553.45 847.974 550.825" id="path3083" stroke="none" fill="#F5A030" fill-rule="evenodd" fill-opacity="1"/><path d="M847.974 550.825C848.386 548.237 850.862 546.436 853.488 546.886 856.113 547.299 857.876 549.774 857.426 552.4 857.013 554.988 854.538 556.789 851.912 556.339 849.324 555.926 847.561 553.45 847.974 550.825" id="path3085" stroke="#000000" stroke-width="0.637659" stroke-linecap="butt" stroke-linejoin="miter" stroke-miterlimit="4" stroke-dasharray="" stroke-opacity="1" fill="none"/><path d="M858.551 564.478C859.452 562.003 862.227 560.727 864.703 561.665 867.179 562.565 868.454 565.341 867.554 567.816 866.616 570.292 863.878 571.567 861.365 570.63 858.889 569.729 857.614 566.954 858.551 564.478" id="path3087" stroke="none" fill="#F5A030" fill-rule="evenodd" fill-opacity="1"/><path d="M858.551 564.478C859.452 562.003 862.227 560.727 864.703 561.665 867.179 562.565 868.454 565.341 867.554 567.816 866.616 570.292 863.878 571.567 861.365 570.63 858.889 569.729 857.614 566.954 858.551 564.478" id="path3089" stroke="#000000" stroke-width="0.637659" stroke-linecap="butt" stroke-linejoin="miter" stroke-miterlimit="4" stroke-dasharray="" stroke-opacity="1" fill="none"/><path d="M882.295 554.463C883.12 551.95 885.821 550.562 888.371 551.387 890.884 552.25 892.235 554.951 891.41 557.464 890.584 559.977 887.846 561.327 885.333 560.502 882.82 559.677 881.47 556.976 882.295 554.463" id="path3091" stroke="none" fill="#F5A030" fill-rule="evenodd" fill-opacity="1"/><path d="M882.295 554.463C883.12 551.95 885.821 550.562 888.371 551.387 890.884 552.25 892.235 554.951 891.41 557.464 890.584 559.977 887.846 561.327 885.333 560.502 882.82 559.677 881.47 556.976 882.295 554.463" id="path3093" stroke="#000000" stroke-width="0.637659" stroke-linecap="butt" stroke-linejoin="miter" stroke-miterlimit="4" stroke-dasharray="" stroke-opacity="1" fill="none"/><path d="M882.07 538.522C882.932 536.009 885.708 534.696 888.184 535.596 890.697 536.496 891.972 539.234 891.109 541.71 890.209 544.223 887.471 545.536 884.995 544.636 882.482 543.735 881.169 540.997 882.07 538.522" id="path3095" stroke="none" fill="#F5A030" fill-rule="evenodd" fill-opacity="1"/><path d="M882.07 538.522C882.932 536.009 885.708 534.696 888.184 535.596 890.697 536.496 891.972 539.234 891.109 541.71 890.209 544.223 887.471 545.536 884.995 544.636 882.482 543.735 881.169 540.997 882.07 538.522" id="path3097" stroke="#000000" stroke-width="0.637659" stroke-linecap="butt" stroke-linejoin="miter" stroke-miterlimit="4" stroke-dasharray="" stroke-opacity="1" fill="none"/><path d="M829.332 555.176 844.41 552.213 844.185 550.975 829.107 553.938 829.332 555.176ZM843.548 554.276 847.974 550.862 842.61 549.362 843.548 554.276Z" id="path3099" stroke="#000000" stroke-width="0.0375093" stroke-linecap="butt" stroke-linejoin="round" stroke-dasharray="" stroke-opacity="1" fill="#000000" fill-rule="nonzero" fill-opacity="1"/><path d="M829.482 557.614 855.026 563.09 854.763 564.291 829.219 558.814 829.482 557.614ZM854.2 560.99 858.551 564.478 853.15 565.866 854.2 560.99Z" id="path3101" stroke="#000000" stroke-width="0.0375093" stroke-linecap="butt" stroke-linejoin="round" stroke-dasharray="" stroke-opacity="1" fill="#000000" fill-rule="nonzero" fill-opacity="1"/><path d="M867.591 564.666 879.257 560.015 878.806 558.852 867.104 563.503 867.591 564.666ZM878.806 562.228 882.52 558.064 876.931 557.576 878.806 562.228Z" id="path3103" stroke="#000000" stroke-width="0.0375093" stroke-linecap="butt" stroke-linejoin="round" stroke-dasharray="" stroke-opacity="1" fill="#000000" fill-rule="nonzero" fill-opacity="1"/><path d="M857.539 551.8 878.656 553.563 878.581 554.801 857.464 553.038 857.539 551.8ZM877.569 551.575 882.37 554.501 877.156 556.564 877.569 551.575Z" id="path3105" stroke="#000000" stroke-width="0.0375093" stroke-linecap="butt" stroke-linejoin="round" stroke-dasharray="" stroke-opacity="1" fill="#000000" fill-rule="nonzero" fill-opacity="1"/><path d="M856.713 549.362 878.731 543.66 878.431 542.46 856.413 548.162 856.713 549.362ZM877.981 545.798 882.22 542.123 876.743 540.96 877.981 545.798Z" id="path3107" stroke="#000000" stroke-width="0.0375093" stroke-linecap="butt" stroke-linejoin="round" stroke-dasharray="" stroke-opacity="1" fill="#000000" fill-rule="nonzero" fill-opacity="1"/><path d="M811.252 479.594 811.252 512.115 999.737 512.115 999.737 479.594 811.252 479.594Z" id="path3109" stroke="none" fill="#B8BEC6" fill-rule="evenodd" fill-opacity="1"/><path d="M811.252 479.594 999.737 479.594 999.737 512.115 811.252 512.115Z" id="path3111" stroke="#6E7277" stroke-width="1.23781" stroke-linecap="butt" stroke-linejoin="miter" stroke-miterlimit="4" stroke-dasharray="" stroke-opacity="1" fill="none"/><text id="text3113" fill="#000000" font-family="verdana" font-style="normal" font-weight="400" font-size="13.2033" text-anchor="start" x="860.96" y="501.123">Actor System</text><path d="M518.81 428.469 518.81 467.235 595.705 467.235 595.705 428.469 518.81 428.469Z" id="path3115" stroke="none" fill="#B8BEC6" fill-rule="evenodd" fill-opacity="1"/><path d="M518.81 428.469 595.705 428.469 595.705 467.235 518.81 467.235Z" id="path3117" stroke="#6E7277" stroke-width="1.25656" stroke-linecap="butt" stroke-linejoin="miter" stroke-miterlimit="4" stroke-dasharray="" stroke-opacity="1" fill="none"/><text id="text3119" fill="#000000" font-family="verdana" font-style="normal" font-weight="400" font-size="13.2033" text-anchor="start" x="539.968" y="445.223">Actor</text><text id="text3121" fill="#000000" font-family="verdana" font-style="normal" font-weight="400" font-size="13.2033" text-anchor="start" x="532.466" y="460.977">System</text><path d="M986.571 487.171 989.009 484.283 989.984 485.108 987.546 487.959 986.571 487.171ZM989.834 483.345 992.235 480.495 993.21 481.282 990.772 484.171 989.834 483.345ZM993.06 479.519 995.498 476.669 996.436 477.494 993.998 480.345 993.06 479.519ZM996.286 475.731 998.724 472.843 999.662 473.668 997.261 476.519 996.286 475.731ZM999.549 471.905 1000.79 470.405 1001.95 469.054 1002.92 469.842 1001.76 471.192 1000.49 472.73 999.549 471.905ZM1002.77 468.079 1005.18 465.228 1006.15 466.016 1003.71 468.904 1002.77 468.079ZM1006 464.253 1007.84 462.04 1007.84 462.078 1008.4 461.402 1009.38 462.19 1008.81 462.865 1006.94 465.078 1006 464.253ZM1009.23 460.427 1011.63 457.576 1012.56 458.364 1010.16 461.252 1009.23 460.427ZM1012.41 456.601 1014.82 453.751 1014.82 453.751 1014.82 453.751 1015.79 454.538 1015.79 454.538 1013.39 457.426 1012.41 456.601ZM1015.64 452.775 1018.04 449.887 1018.98 450.712 1016.58 453.563 1015.64 452.775ZM1018.83 448.949 1021.23 446.061 1022.2 446.849 1019.8 449.737 1018.83 448.949ZM1022.02 445.086 1024.42 442.198 1025.39 442.985 1022.99 445.874 1022.02 445.086ZM1025.21 441.222 1027.61 438.334 1028.54 439.122 1026.18 442.01 1025.21 441.222ZM1028.39 437.359 1028.47 437.284 1028.47 437.284 1030.76 434.471 1031.73 435.258 1029.41 438.072 1029.37 438.184 1028.39 437.359ZM1031.54 433.495 1033.91 430.57 1034.88 431.357 1032.52 434.283 1031.54 433.495ZM1034.7 429.595 1035.07 429.144 1035.07 429.144 1037.02 426.706 1038 427.456 1036.05 429.932 1035.67 430.382 1034.7 429.595ZM1037.81 425.731 1040.17 422.768 1041.15 423.556 1038.78 426.481 1037.81 425.731ZM1040.96 421.793 1041.48 421.117 1041.48 421.117 1043.25 418.867 1044.26 419.655 1042.5 421.905 1041.93 422.58 1040.96 421.793ZM1044.04 417.892 1046.36 414.928 1047.34 415.716 1045.01 418.642 1044.04 417.892ZM1047.11 413.953 1047.75 413.165 1047.75 413.165 1049.4 410.99 1050.41 411.74 1048.72 413.916 1048.12 414.741 1047.11 413.953ZM1050.19 410.015 1050.79 409.227 1050.79 409.227 1052.47 407.014 1053.45 407.802 1051.76 409.977 1051.16 410.765 1050.19 410.015ZM1053.22 406.039 1053.75 405.326 1053.75 405.326 1055.48 403.038 1056.49 403.788 1054.76 406.076 1054.2 406.789 1053.22 406.039ZM1056.23 402.063 1056.68 401.463 1056.68 401.463 1058.48 399.024 1059.49 399.775 1057.69 402.213 1057.24 402.813 1056.23 402.063ZM1059.23 398.049 1059.53 397.599 1059.53 397.599 1061.44 395.011 1062.45 395.761 1060.54 398.349 1060.2 398.799 1059.23 398.049ZM1062.15 393.998 1062.34 393.811 1062.3 393.811 1064.36 390.96 1065.38 391.71 1063.31 394.523 1063.16 394.748 1062.15 393.998ZM1065.08 389.947 1067.25 386.909 1068.27 387.622 1066.09 390.66 1065.08 389.947ZM1067.97 385.859 1070.1 382.783 1071.12 383.496 1068.98 386.571 1067.97 385.859ZM1070.82 381.77 1072.73 378.919 1072.73 378.919 1072.92 378.657 1073.93 379.37 1073.78 379.595 1071.83 382.483 1070.82 381.77ZM1073.59 377.607 1075.17 375.281 1075.13 375.281 1075.66 374.493 1076.71 375.168 1076.18 375.994 1074.64 378.319 1073.59 377.607ZM1076.33 373.443 1077.46 371.718 1077.46 371.718 1078.36 370.292 1079.41 370.967 1078.51 372.393 1077.38 374.118 1076.33 373.443ZM1079.03 369.242 1079.71 368.154 1079.71 368.192 1080.98 366.054 1082.07 366.729 1080.76 368.829 1080.08 369.917 1079.03 369.242ZM1081.66 365.003 1081.84 364.666 1081.84 364.666 1083.57 361.778 1084.66 362.415 1082.89 365.341 1082.71 365.641 1081.66 365.003ZM1084.21 360.69 1085.82 357.839 1085.82 357.839 1086.05 357.464 1087.13 358.064 1086.91 358.439 1085.3 361.328 1084.21 360.69ZM1086.65 356.376 1087.7 354.501 1087.7 354.501 1088.45 353.075 1089.53 353.676 1088.78 355.101 1087.73 356.976 1086.65 356.376ZM1089.05 351.988 1089.46 351.162 1089.46 351.2 1090.77 348.649 1091.86 349.212 1090.55 351.763 1090.13 352.55 1089.05 351.988ZM1091.33 347.562 1092.72 344.711 1092.72 344.711 1092.95 344.186 1094.11 344.711 1093.85 345.236 1092.42 348.087 1091.33 347.562ZM1093.51 343.06 1094.22 341.523 1094.22 341.523 1095.09 339.685 1096.21 340.172 1095.35 342.048 1094.64 343.586 1093.51 343.06ZM1095.57 338.522 1095.65 338.372 1095.65 338.372 1097 335.259 1097 335.296 1097.07 335.108 1098.24 335.596 1098.16 335.784 1096.81 338.897 1096.74 339.047 1095.57 338.522ZM1097.56 333.946 1098.31 332.22 1098.27 332.22 1098.99 330.495 1100.15 330.945 1099.44 332.67 1098.72 334.433 1097.56 333.946ZM1099.44 329.332 1099.51 329.182 1099.51 329.182 1100.64 326.181 1100.64 326.181 1100.79 325.844 1101.95 326.256 1101.84 326.631 1100.67 329.632 1100.6 329.782 1099.44 329.332ZM1101.2 324.681 1101.72 323.218 1101.72 323.218 1102.44 321.155 1103.64 321.568 1102.89 323.631 1102.36 325.093 1101.2 324.681ZM1102.85 319.955 1103.71 317.329 1103.71 317.367 1104.01 316.429 1105.18 316.766 1104.91 317.742 1104.01 320.367 1102.85 319.955ZM1104.35 315.229 1105.48 311.628 1106.64 312.003 1105.55 315.566 1104.35 315.229ZM1105.78 310.427 1106.79 306.826 1107.99 307.164 1107.01 310.765 1105.78 310.427ZM1107.13 305.626 1108.03 301.988 1109.23 302.288 1108.33 305.926 1107.13 305.626ZM1108.33 300.787 1108.44 300.375 1108.44 300.412 1109.19 297.149 1110.39 297.412 1109.64 300.675 1109.56 301.087 1108.33 300.787ZM1109.45 295.911 1109.68 294.898 1109.68 294.898 1110.24 292.273 1111.44 292.535 1110.91 295.161 1110.65 296.211 1109.45 295.911ZM1110.5 291.035 1110.8 289.46 1110.8 289.46 1111.21 287.359 1112.45 287.622 1112.04 289.685 1111.7 291.298 1110.5 291.035ZM1111.44 286.159 1111.85 284.058 1111.85 284.058 1112.11 282.445 1113.35 282.67 1113.09 284.283 1112.68 286.384 1111.44 286.159ZM1112.34 281.245 1112.83 278.694 1112.83 278.694 1113.01 277.532 1114.25 277.757 1114.03 278.919 1113.58 281.47 1112.34 281.245ZM1113.2 276.331 1113.58 274.193 1114.82 274.418 1114.44 276.519 1113.2 276.331ZM1110.28 274.906 1115.23 268.117 1117.67 276.144 1110.28 274.906Z" id="path3123" stroke="#000000" stroke-width="0.0375093" stroke-linecap="butt" stroke-linejoin="round" stroke-dasharray="" stroke-opacity="1" fill="#000000" fill-rule="nonzero" fill-opacity="1"/><path d="M1010.16 268.942 1009.11 272.543 1007.91 272.168 1008.96 268.567 1010.16 268.942ZM1008.74 273.743 1007.69 277.344 1006.49 276.969 1007.54 273.368 1008.74 273.743ZM1007.31 278.544 1006.26 282.108 1005.06 281.77 1006.11 278.169 1007.31 278.544ZM1005.89 283.308 1005.48 284.771 1004.84 286.909 1003.64 286.571 1004.28 284.396 1004.69 282.97 1005.89 283.308ZM1004.5 288.109 1003.41 291.71 1002.25 291.373 1003.3 287.772 1004.5 288.109ZM1003.07 292.91 1002.02 296.511 1000.82 296.174 1001.87 292.573 1003.07 292.91ZM1001.69 297.712 1000.82 300.525 1000.82 300.525 1000.6 301.313 999.399 300.975 999.624 300.187 1000.49 297.374 1001.69 297.712ZM1000.26 302.513 999.211 306.114 998.011 305.776 999.061 302.175 1000.26 302.513ZM998.874 307.314 998.574 308.364 998.574 308.364 997.861 310.915 996.661 310.577 997.373 308.027 997.674 306.976 998.874 307.314ZM997.523 312.115 996.473 315.754 995.273 315.379 996.323 311.778 997.523 312.115ZM996.136 316.954 995.123 320.555 993.923 320.217 994.935 316.616 996.136 316.954ZM994.823 321.755 994.223 323.856 994.223 323.856 993.81 325.356 992.61 325.018 993.022 323.556 993.585 321.418 994.823 321.755ZM993.472 326.556 992.497 330.195 991.297 329.857 992.272 326.256 993.472 326.556ZM992.16 331.395 992.122 331.545 992.122 331.545 991.184 335.033 989.984 334.696 990.922 331.208 990.959 331.057 992.16 331.395ZM990.884 336.234 990.097 339.159 990.097 339.122 989.909 339.835 988.709 339.535 988.896 338.822 989.684 335.896 990.884 336.234ZM989.609 341.072 988.671 344.673 987.471 344.373 988.409 340.735 989.609 341.072ZM988.371 345.911 988.184 346.661 988.184 346.624 987.471 349.55 986.233 349.25 986.946 346.324 987.133 345.574 988.371 345.911ZM987.171 350.75 986.346 354.088 986.346 354.088 986.271 354.388 985.033 354.088 985.108 353.788 985.933 350.45 987.171 350.75ZM985.971 355.589 985.108 359.264 983.908 358.964 984.77 355.326 985.971 355.589ZM984.808 360.465 984.583 361.403 984.583 361.403 983.983 364.103 982.782 363.841 983.383 361.102 983.608 360.165 984.808 360.465ZM983.72 365.341 982.97 368.604 982.97 368.604 982.895 368.979 981.695 368.717 981.77 368.342 982.482 365.078 983.72 365.341ZM982.632 370.217 981.882 373.893 980.644 373.631 981.432 369.955 982.632 370.217ZM981.62 375.093 981.469 375.731 981.469 375.694 980.869 378.769 979.669 378.544 980.269 375.469 980.382 374.868 981.62 375.093ZM980.644 380.007 980.119 382.708 980.119 382.67 979.932 383.683 978.694 383.458 978.881 382.445 979.406 379.782 980.644 380.007ZM979.707 384.921 979.069 388.597 977.831 388.372 978.469 384.696 979.707 384.921ZM978.844 389.835 978.244 393.511 977.006 393.323 977.606 389.61 978.844 389.835ZM978.056 394.748 977.794 396.211 977.794 396.211 977.494 398.462 976.256 398.274 976.556 396.024 976.818 394.561 978.056 394.748ZM977.306 399.7 976.856 402.775 976.856 402.775 976.781 403.413 975.543 403.263 975.618 402.625 976.068 399.512 977.306 399.7ZM976.631 404.651 976.181 408.364 974.943 408.214 975.393 404.501 976.631 404.651ZM976.031 409.602 975.618 413.315 974.38 413.203 974.793 409.452 976.031 409.602ZM975.505 414.553 975.393 415.566 975.393 415.566 975.13 418.304 973.893 418.192 974.155 415.416 974.23 414.441 975.505 414.553ZM975.018 419.542 974.793 421.793 974.793 421.755 974.68 423.255 973.443 423.18 973.555 421.68 973.78 419.43 975.018 419.542ZM974.605 424.493 974.343 427.869 974.343 427.869 974.305 428.244 973.067 428.169 973.105 427.794 973.33 424.418 974.605 424.493ZM974.23 429.482 974.005 433.233 972.767 433.158 972.992 429.407 974.23 429.482ZM973.93 434.471 973.743 438.222 972.505 438.147 972.692 434.396 973.93 434.471ZM973.705 439.459 973.668 439.872 973.668 439.872 973.555 443.21 972.317 443.173 972.43 439.835 972.43 439.422 973.705 439.459ZM973.518 444.448 973.443 445.761 973.443 445.761 973.405 448.199 972.13 448.162 972.205 445.724 972.242 444.411 973.518 444.448ZM973.367 449.437 973.292 451.575 973.292 451.575 973.292 453.188 972.055 453.188 972.055 451.537 972.13 449.399 973.367 449.437ZM973.255 454.426 973.217 458.177 971.98 458.177 972.017 454.426 973.255 454.426ZM973.217 459.452 973.18 463.053 973.18 463.053 973.18 463.203 971.905 463.203 971.905 463.053 971.942 459.414 973.217 459.452ZM973.18 464.441 973.18 468.192 971.905 468.192 971.905 464.441 973.18 464.441ZM973.18 469.429 973.18 473.18 971.942 473.18 971.905 469.429 973.18 469.429ZM973.18 474.418 973.217 478.169 971.942 478.207 971.942 474.456 973.18 474.418ZM976.331 478.169 972.617 485.671 968.829 478.207 976.331 478.169Z" id="path3125" stroke="#000000" stroke-width="0.0375093" stroke-linecap="butt" stroke-linejoin="round" stroke-dasharray="" stroke-opacity="1" fill="#000000" fill-rule="nonzero" fill-opacity="1"/><text id="text3127" fill="#000000" font-family="verdana" font-style="italic" font-weight="400" font-size="13.8034" text-anchor="start" x="1098.8" y="347.502">Deploy/Stop/</text><text id="text3129" fill="#000000" font-family="verdana" font-style="italic" font-weight="400" font-size="13.8034" text-anchor="start" x="1098.8" y="364.006">Cancel Tasks</text><text id="text3131" fill="#000000" font-family="verdana" font-style="italic" font-weight="400" font-size="13.8034" text-anchor="start" x="1077.93" y="393.537">Trigger</text><text id="text3133" fill="#000000" font-family="verdana" font-style="italic" font-weight="400" font-size="13.8034" text-anchor="start" x="1060.68" y="410.042">Checkpoints</text><text id="text3135" fill="#000000" font-family="verdana" font-style="italic" font-weight="400" font-size="13.8034" text-anchor="start" x="906.686" y="312.694">Task Status</text><text id="text3137" fill="#000000" font-family="verdana" font-style="italic" font-weight="400" font-size="13.8034" text-anchor="start" x="905.308" y="341.081">Heartbeats</text><text id="text3139" fill="#000000" font-family="verdana" font-style="italic" font-weight="400" font-size="13.8034" text-anchor="start" x="912.666" y="368.712">Statistics</text><text id="text3141" fill="#000000" font-family="verdana" font-style="italic" font-weight="400" font-size="13.8034" text-anchor="start" x="1045.5" y="439.573">…</text><text id="text3143" fill="#000000" font-family="verdana" font-style="italic" font-weight="400" font-size="13.8034" text-anchor="start" x="936.664" y="397.456">…</text><path d="M661.965 29.9325 661.965 281.883 866.241 281.883 866.241 29.9325 661.965 29.9325Z" id="path3145" stroke="none" fill="#F5A030" fill-rule="evenodd" fill-opacity="1"/><path d="M661.965 29.9325 866.241 29.9325 866.241 281.883 661.965 281.883Z" id="path3147" stroke="#935F1C" stroke-width="1.23781" stroke-linecap="butt" stroke-linejoin="miter" stroke-miterlimit="4" stroke-dasharray="" stroke-opacity="1" fill="none"/><text id="text3149" fill="#000000" font-family="verdana" font-style="normal" font-weight="400" font-size="17.5544" text-anchor="start" x="671.095" y="51.8773">TaskManager</text><path d="M737.471 77.3068 737.471 165.604 791.372 165.604 791.372 77.3068 737.471 77.3068Z" id="path3151" stroke="none" fill="#E4EAF4" fill-rule="evenodd" fill-opacity="1"/><path d="M737.471 77.3068 791.372 77.3068 791.372 165.604 737.471 165.604Z" id="path3153" stroke="#898C92" stroke-width="1.23781" stroke-linecap="butt" stroke-linejoin="miter" stroke-miterlimit="4" stroke-dasharray="" stroke-opacity="1" fill="none"/><text id="text3155" fill="#000000" font-family="verdana" font-style="normal" font-weight="400" font-size="15.0037" text-anchor="start" x="747.903" y="96.7069">Task</text><text id="text3157" fill="#000000" font-family="verdana" font-style="normal" font-weight="400" font-size="15.0037" text-anchor="start" x="749.853" y="114.711">Slot</text><path d="M801.875 77.3068 801.875 165.604 855.626 165.604 855.626 77.3068 801.875 77.3068Z" id="path3159" stroke="none" fill="#E4EAF4" fill-rule="evenodd" fill-opacity="1"/><path d="M801.875 77.3068 855.626 77.3068 855.626 165.604 801.875 165.604Z" id="path3161" stroke="#898C92" stroke-width="1.23781" stroke-linecap="butt" stroke-linejoin="miter" stroke-miterlimit="4" stroke-dasharray="" stroke-opacity="1" fill="none"/><text id="text3163" fill="#000000" font-family="verdana" font-style="normal" font-weight="400" font-size="15.0037" text-anchor="start" x="812.268" y="96.7069">Task</text><text id="text3165" fill="#000000" font-family="verdana" font-style="normal" font-weight="400" font-size="15.0037" text-anchor="start" x="814.218" y="114.711">Slot</text><path d="M745.423 139.91C745.423 129.407 753.938 120.893 764.44 120.893 774.906 120.893 783.42 129.407 783.42 139.91 783.42 150.375 774.906 158.89 764.44 158.89 753.938 158.89 745.423 150.375 745.423 139.91" id="path3167" stroke="none" fill="#BE73F1" fill-rule="evenodd" fill-opacity="1"/><path d="M745.423 139.91C745.423 129.407 753.938 120.893 764.44 120.893 774.906 120.893 783.42 129.407 783.42 139.91 783.42 150.375 774.906 158.89 764.44 158.89 753.938 158.89 745.423 150.375 745.423 139.91" id="path3169" stroke="#724591" stroke-width="1.23781" stroke-linecap="butt" stroke-linejoin="miter" stroke-miterlimit="4" stroke-dasharray="" stroke-opacity="1" fill="none"/><text id="text3171" fill="#000000" font-family="verdana" font-style="normal" font-weight="400" font-size="11.2528" text-anchor="start" x="751.369" y="144.369">Task</text><path d="M672.468 77.3068 672.468 165.604 726.368 165.604 726.368 77.3068 672.468 77.3068Z" id="path3173" stroke="none" fill="#E4EAF4" fill-rule="evenodd" fill-opacity="1"/><path d="M672.468 77.3068 726.368 77.3068 726.368 165.604 672.468 165.604Z" id="path3175" stroke="#898C92" stroke-width="1.23781" stroke-linecap="butt" stroke-linejoin="miter" stroke-miterlimit="4" stroke-dasharray="" stroke-opacity="1" fill="none"/><text id="text3177" fill="#000000" font-family="verdana" font-style="normal" font-weight="400" font-size="15.0037" text-anchor="start" x="682.966" y="96.7069">Task</text><text id="text3179" fill="#000000" font-family="verdana" font-style="normal" font-weight="400" font-size="15.0037" text-anchor="start" x="684.916" y="114.711">Slot</text><path d="M680.419 139.91C680.419 129.407 688.934 120.893 699.399 120.893 709.902 120.893 718.417 129.407 718.417 139.91 718.417 150.375 709.902 158.89 699.399 158.89 688.934 158.89 680.419 150.375 680.419 139.91" id="path3181" stroke="none" fill="#BE73F1" fill-rule="evenodd" fill-opacity="1"/><path d="M680.419 139.91C680.419 129.407 688.934 120.893 699.399 120.893 709.902 120.893 718.417 129.407 718.417 139.91 718.417 150.375 709.902 158.89 699.399 158.89 688.934 158.89 680.419 150.375 680.419 139.91" id="path3183" stroke="#724591" stroke-width="1.23781" stroke-linecap="butt" stroke-linejoin="miter" stroke-miterlimit="4" stroke-dasharray="" stroke-opacity="1" fill="none"/><text id="text3185" fill="#000000" font-family="verdana" font-style="normal" font-weight="400" font-size="11.2528" text-anchor="start" x="686.432" y="144.369">Task</text><path d="M670.104 206.714 670.104 238.447 858.589 238.447 858.589 206.714 670.104 206.714Z" id="path3187" stroke="none" fill="#B8BEC6" fill-rule="evenodd" fill-opacity="1"/><path d="M670.104 206.714 858.589 206.714 858.589 238.447 670.104 238.447Z" id="path3189" stroke="#6E7277" stroke-width="1.23781" stroke-linecap="butt" stroke-linejoin="miter" stroke-miterlimit="4" stroke-dasharray="" stroke-opacity="1" fill="none"/><text id="text3191" fill="#000000" font-family="verdana" font-style="normal" font-weight="400" font-size="13.2033" text-anchor="start" x="705.916" y="227.8">Network Manager</text><path d="M670.104 243.286 670.104 275.806 858.589 275.806 858.589 243.286 670.104 243.286Z" id="path3193" stroke="none" fill="#B8BEC6" fill-rule="evenodd" fill-opacity="1"/><path d="M670.104 243.286 858.589 243.286 858.589 275.806 670.104 275.806Z" id="path3195" stroke="#6E7277" stroke-width="1.23781" stroke-linecap="butt" stroke-linejoin="miter" stroke-miterlimit="4" stroke-dasharray="" stroke-opacity="1" fill="none"/><text id="text3197" fill="#000000" font-family="verdana" font-style="normal" font-weight="400" font-size="13.2033" text-anchor="start" x="719.873" y="264.771">Actor System</text><path d="M670.104 170.442 670.104 202.175 858.589 202.175 858.589 170.442 670.104 170.442Z" id="path3199" stroke="none" fill="#B8BEC6" fill-rule="evenodd" fill-opacity="1"/><path d="M670.104 170.442 858.589 170.442 858.589 202.175 670.104 202.175Z" id="path3201" stroke="#6E7277" stroke-width="1.23781" stroke-linecap="butt" stroke-linejoin="miter" stroke-miterlimit="4" stroke-dasharray="" stroke-opacity="1" fill="none"/><text id="text3203" fill="#000000" font-family="verdana" font-style="normal" font-weight="400" font-size="13.2033" text-anchor="start" x="686.561" y="191.528">Memory &amp; I/O Manager</text><text id="text3205" fill="#000000" font-family="verdana" font-style="italic" font-weight="400" font-size="13.8034" text-anchor="start" x="725.419" y="17.8258">(Worker)</text><path d="M844.223 223.293 868.454 199.062 868.454 211.178 938.296 211.178 938.296 199.062 962.527 223.293 938.296 247.487 938.296 235.409 868.454 235.409 868.454 247.487Z" id="path3207" stroke="none" fill="#FFFFFF" fill-rule="evenodd" fill-opacity="1"/><path d="M844.223 223.293 868.454 199.062 868.454 211.178 938.296 211.178 938.296 199.062 962.527 223.293 938.296 247.487 938.296 235.409 868.454 235.409 868.454 247.487Z" id="path3209" stroke="#000000" stroke-width="1.23781" stroke-linecap="butt" stroke-linejoin="miter" stroke-miterlimit="4" stroke-dasharray="" stroke-opacity="1" fill="none"/><text id="text3211" fill="#000000" font-family="verdana" font-style="normal" font-weight="400" font-size="13.2033" text-anchor="start" x="857.994" y="228.516">Data Streams</text><path d="M961.027 479.895 959.302 476.556 960.427 475.956 962.152 479.294 961.027 479.895ZM958.739 475.431 957.013 472.093 958.139 471.53 959.864 474.868 958.739 475.431ZM956.451 471.005 954.725 467.667 955.851 467.066 957.576 470.405 956.451 471.005ZM954.163 466.541 952.437 463.203 953.563 462.64 955.288 465.979 954.163 466.541ZM951.875 462.078 950.749 459.902 950.149 458.777 951.274 458.177 951.875 459.339 952.962 461.515 951.875 462.078ZM949.587 457.652 947.861 454.313 948.949 453.751 950.674 457.089 949.587 457.652ZM947.261 453.225 945.611 450 945.536 449.887 946.661 449.287 946.736 449.437 948.386 452.625 947.261 453.225ZM944.973 448.762 943.247 445.461 944.373 444.861 946.098 448.199 944.973 448.762ZM942.685 444.336 940.959 440.997 942.047 440.435 943.773 443.773 942.685 444.336ZM940.359 439.91 938.634 436.571 939.722 436.009 941.485 439.309 940.359 439.91ZM938.034 435.483 936.308 432.145 937.396 431.583 939.159 434.883 938.034 435.483ZM935.708 431.02 935.408 430.457 933.983 427.719 935.07 427.119 936.533 429.857 936.833 430.457 935.708 431.02ZM933.383 426.631 931.657 423.293 932.745 422.73 934.508 426.031 933.383 426.631ZM931.057 422.205 930.344 420.855 930.344 420.855 929.294 418.867 930.419 418.304 931.47 420.255 932.182 421.605 931.057 422.205ZM928.731 417.779 926.968 414.478 928.056 413.878 929.819 417.179 928.731 417.779ZM926.368 413.353 925.318 411.402 925.318 411.402 924.605 410.052 925.693 409.452 926.443 410.802 927.456 412.79 926.368 413.353ZM924.005 408.964 922.242 405.664 923.33 405.063 925.093 408.364 924.005 408.964ZM921.642 404.538 920.367 402.138 920.367 402.138 919.842 401.237 920.967 400.637 921.455 401.575 922.73 403.938 921.642 404.538ZM919.279 400.15 917.891 397.599 917.479 396.849 918.566 396.249 918.979 396.999 920.367 399.55 919.279 400.15ZM916.878 395.761 915.416 393.098 915.078 392.46 916.166 391.86 916.503 392.498 917.966 395.161 916.878 395.761ZM914.44 391.372 912.977 388.672 912.977 388.672 912.64 388.109 913.728 387.509 914.065 388.072 915.566 390.772 914.44 391.372ZM912.04 387.021 910.539 384.321 910.202 383.721 911.29 383.12 911.627 383.683 913.128 386.384 912.04 387.021ZM909.602 382.633 908.101 380.007 908.101 380.007 907.764 379.37 908.851 378.769 909.189 379.37 910.689 382.033 909.602 382.633ZM907.126 378.282 905.701 375.769 905.701 375.769 905.288 375.018 906.376 374.418 906.788 375.131 908.214 377.682 907.126 378.282ZM904.688 373.931 903.338 371.605 903.338 371.605 902.812 370.705 903.863 370.067 904.388 370.967 905.738 373.331 904.688 373.931ZM902.175 369.617 900.937 367.517 900.937 367.517 900.299 366.391 901.35 365.754 902.025 366.879 903.263 368.979 902.175 369.617ZM899.662 365.303 898.611 363.503 898.611 363.503 897.749 362.078 898.836 361.44 899.662 362.865 900.749 364.666 899.662 365.303ZM897.111 360.99 896.248 359.565 896.248 359.565 895.198 357.802 896.248 357.126 897.336 358.927 898.199 360.352 897.111 360.99ZM894.523 356.714 893.923 355.739 893.923 355.739 892.572 353.526 893.66 352.85 895.01 355.101 895.611 356.076 894.523 356.714ZM891.935 352.438 891.635 351.988 891.635 351.988 889.947 349.25 891.034 348.612 892.722 351.313 892.985 351.8 891.935 352.438ZM889.309 348.199 887.284 345.048 888.334 344.373 890.359 347.524 889.309 348.199ZM886.608 343.998 884.883 341.298 884.883 341.298 884.583 340.847 885.633 340.172 885.933 340.622 887.659 343.323 886.608 343.998ZM883.908 339.797 882.67 337.922 882.67 337.922 881.845 336.684 882.895 335.971 883.72 337.247 884.958 339.122 883.908 339.797ZM881.132 335.634 880.494 334.658 880.494 334.696 879.031 332.558 880.082 331.845 881.545 333.983 882.182 334.958 881.132 335.634ZM878.319 331.508 876.181 328.469 876.181 328.469 876.181 328.469 877.194 327.719 877.231 327.757 879.369 330.795 878.319 331.508ZM875.468 327.419 874.08 325.506 874.08 325.506 873.255 324.418 874.268 323.668 875.093 324.793 876.481 326.706 875.468 327.419ZM872.505 323.406 871.98 322.655 871.98 322.655 870.292 320.405 871.305 319.655 872.992 321.905 873.518 322.655 872.505 323.406ZM869.542 319.392 867.816 317.179 867.854 317.179 867.254 316.429 868.229 315.641 868.829 316.429 870.517 318.642 869.542 319.392ZM866.466 315.454 865.791 314.553 865.791 314.553 864.14 312.49 865.153 311.74 866.766 313.803 867.479 314.666 866.466 315.454ZM863.39 311.553 861.777 309.565 861.777 309.565 860.99 308.664 861.965 307.839 862.715 308.777 864.328 310.765 863.39 311.553ZM860.202 307.689 859.752 307.202 859.789 307.202 857.801 304.876 857.801 304.876 857.764 304.838 858.701 304.013 858.739 304.051 860.727 306.376 861.14 306.901 860.202 307.689ZM856.938 303.901 855.851 302.625 855.851 302.625 854.463 301.088 855.401 300.262 856.788 301.8 857.876 303.076 856.938 303.901ZM853.638 300.15 851.95 298.312 851.95 298.312 851.125 297.412 852.025 296.549 852.887 297.449 854.575 299.325 853.638 300.15ZM850.262 296.474 850.037 296.249 850.037 296.249 847.674 293.773 848.574 292.91 850.937 295.386 851.2 295.649 850.262 296.474ZM846.811 292.873 846.211 292.235 846.248 292.235 844.185 290.21 845.086 289.31 847.111 291.373 847.711 292.01 846.811 292.873ZM843.323 289.31 842.46 288.447 842.46 288.447 840.659 286.684 841.522 285.784 843.323 287.547 844.223 288.447 843.323 289.31ZM839.759 285.821 838.709 284.808 838.709 284.808 837.059 283.233 837.921 282.333 839.609 283.908 840.622 284.921 839.759 285.821ZM836.158 282.37 834.996 281.283 835.033 281.283 833.42 279.82 834.283 278.882 835.858 280.382 837.021 281.47 836.158 282.37ZM832.52 278.957 831.32 277.869 831.32 277.869 829.744 276.406 830.607 275.506 832.182 276.931 833.345 278.019 832.52 278.957ZM828.844 275.581 827.681 274.531 827.681 274.531 826.031 273.068 826.893 272.13 828.506 273.593 829.669 274.643 828.844 275.581ZM825.131 272.243 825.018 272.168 825.843 271.23 825.956 271.305 825.131 272.243ZM823.855 275.319 820.779 267.517 828.881 269.73 823.855 275.319Z" id="path3213" stroke="#000000" stroke-width="0.0375093" stroke-linecap="butt" stroke-linejoin="round" stroke-dasharray="" stroke-opacity="1" fill="#000000" fill-rule="nonzero" fill-opacity="1"/><path d="M783.12 269.017 785.483 271.943 784.508 272.693 782.145 269.767 783.12 269.017ZM786.271 272.918 788.596 275.806 787.621 276.594 785.296 273.668 786.271 272.918ZM789.384 276.781 791.747 279.707 790.772 280.495 788.409 277.569 789.384 276.781ZM792.535 280.682 794.861 283.608 793.885 284.396 791.56 281.47 792.535 280.682ZM795.648 284.583 798.011 287.509 797.036 288.297 794.673 285.371 795.648 284.583ZM798.799 288.484 801.125 291.41 800.149 292.198 797.824 289.272 798.799 288.484ZM801.912 292.385 804.275 295.311 803.3 296.099 800.937 293.173 801.912 292.385ZM805.063 296.286 807.389 299.212 806.413 300 804.088 297.074 805.063 296.286ZM808.176 300.187 810.539 303.113 809.564 303.901 807.201 300.975 808.176 300.187ZM811.29 304.088 813.653 307.014 812.677 307.802 810.314 304.876 811.29 304.088ZM814.44 307.989 816.803 310.915 815.828 311.703 813.465 308.777 814.44 307.989ZM817.554 311.89 819.917 314.816 818.942 315.604 816.578 312.678 817.554 311.89ZM820.704 315.791 823.03 318.717 822.055 319.505 819.729 316.579 820.704 315.791ZM823.818 319.692 826.181 322.618 825.206 323.406 822.842 320.48 823.818 319.692ZM826.969 323.593 829.294 326.519 828.319 327.307 825.993 324.381 826.969 323.593ZM830.082 327.494 832.445 330.42 831.47 331.208 829.107 328.282 830.082 327.494ZM833.233 331.395 835.558 334.321 834.583 335.108 832.257 332.183 833.233 331.395ZM836.346 335.296 838.709 338.222 837.734 339.009 835.371 336.084 836.346 335.296ZM839.497 339.197 841.822 342.123 840.847 342.91 838.521 339.985 839.497 339.197ZM842.61 343.098 844.973 346.024 843.998 346.811 841.635 343.886 842.61 343.098ZM845.761 346.999 848.086 349.925 847.111 350.712 844.785 347.787 845.761 346.999ZM848.874 350.9 851.237 353.826 850.262 354.613 847.899 351.688 848.874 350.9ZM852.025 354.801 854.35 357.727 853.375 358.514 851.049 355.589 852.025 354.801ZM855.138 358.702 857.501 361.628 856.526 362.415 854.163 359.49 855.138 358.702ZM858.289 362.603 860.614 365.529 859.639 366.316 857.314 363.391 858.289 362.603ZM861.402 366.504 863.765 369.43 862.79 370.217 860.427 367.292 861.402 366.504ZM864.515 370.405 866.878 373.331 865.903 374.118 863.54 371.192 864.515 370.405ZM867.666 374.306 870.029 377.231 869.054 378.019 866.691 375.093 867.666 374.306ZM870.779 378.207 873.143 381.132 872.167 381.92 869.804 378.994 870.779 378.207ZM873.93 382.108 876.256 385.033 875.281 385.821 872.955 382.895 873.93 382.108ZM877.044 386.009 879.407 388.934 878.431 389.722 876.068 386.796 877.044 386.009ZM880.194 389.91 882.52 392.835 881.545 393.623 879.219 390.697 880.194 389.91ZM883.308 393.811 885.671 396.736 884.695 397.487 882.332 394.598 883.308 393.811ZM886.458 397.712 888.784 400.637 887.809 401.388 885.483 398.462 886.458 397.712ZM889.572 401.613 890.697 402.963 891.935 404.538 890.959 405.288 889.722 403.751 888.596 402.363 889.572 401.613ZM892.722 405.514 893.36 406.301 895.048 408.439 894.073 409.227 892.385 407.089 891.71 406.301 892.722 405.514ZM895.836 409.414 895.948 409.565 898.161 412.34 897.186 413.128 894.973 410.352 894.86 410.202 895.836 409.414ZM898.949 413.315 900.974 415.904 901.275 416.279 900.299 417.029 899.999 416.654 897.974 414.103 898.949 413.315ZM902.062 417.254 903.413 418.942 904.388 420.18 903.413 420.967 902.4 419.73 901.087 418.004 902.062 417.254ZM905.175 421.155 905.776 421.943 907.501 424.118 906.526 424.868 904.8 422.73 904.163 421.943 905.175 421.155ZM908.251 425.093 910.389 427.757 910.577 428.019 909.602 428.807 909.377 428.507 907.276 425.844 908.251 425.093ZM911.365 428.994 912.602 430.57 913.69 431.958 912.715 432.708 911.627 431.32 910.389 429.782 911.365 428.994ZM914.478 432.933 914.778 433.308 916.803 435.859 915.828 436.646 913.803 434.096 913.503 433.683 914.478 432.933ZM917.591 436.834 919.016 438.672 919.917 439.797 918.904 440.585 918.041 439.459 916.578 437.622 917.591 436.834ZM920.667 440.772 922.992 443.736 922.017 444.486 919.692 441.56 920.667 440.772ZM923.78 444.711 926.106 447.637 925.093 448.424 922.805 445.461 923.78 444.711ZM926.856 448.649 927.043 448.874 929.181 451.575 928.206 452.363 926.068 449.625 925.881 449.399 926.856 448.649ZM929.969 452.55 930.869 453.713 932.295 455.513 931.282 456.301 929.894 454.501 928.994 453.338 929.969 452.55ZM933.045 456.489 934.583 458.439 935.371 459.452 934.395 460.202 933.57 459.189 932.07 457.276 933.045 456.489ZM936.121 460.427 938.184 463.015 938.446 463.39 937.471 464.141 937.208 463.803 935.145 461.215 936.121 460.427ZM939.234 464.366 941.56 467.329 940.547 468.079 938.259 465.153 939.234 464.366ZM942.31 468.304 944.635 471.267 943.623 472.018 941.335 469.054 942.31 468.304ZM945.385 472.243 947.711 475.206 946.698 475.956 944.41 473.03 945.385 472.243ZM948.461 476.181 948.611 476.331 950.787 479.144 949.812 479.895 947.599 477.119 947.486 476.969 948.461 476.181ZM953.225 477.156 954.875 485.371 947.299 481.77 953.225 477.156Z" id="path3215" stroke="#000000" stroke-width="0.0375093" stroke-linecap="butt" stroke-linejoin="round" stroke-dasharray="" stroke-opacity="1" fill="#000000" fill-rule="nonzero" fill-opacity="1"/><path d="M586.871 457.539 590.585 458.064 590.772 456.826 587.059 456.301 586.871 457.539ZM591.822 458.252 595.536 458.777 595.723 457.539 592.01 457.014 591.822 458.252ZM596.774 458.927 600.487 459.452 600.675 458.214 596.961 457.689 596.774 458.927ZM601.725 459.639 605.438 460.165 605.626 458.927 601.912 458.402 601.725 459.639ZM606.676 460.315 610.39 460.84 610.577 459.602 606.864 459.077 606.676 460.315ZM611.627 461.027 615.341 461.552 615.528 460.315 611.815 459.79 611.627 461.027ZM616.579 461.703 617.779 461.89 620.292 462.228 620.48 460.99 617.966 460.652 616.766 460.465 616.579 461.703ZM621.53 462.415 625.243 462.94 625.431 461.703 621.717 461.177 621.53 462.415ZM626.481 463.128 630.195 463.653 630.382 462.415 626.669 461.89 626.481 463.128ZM631.432 463.841 633.195 464.066 633.195 464.066 635.146 464.366 635.333 463.128 633.383 462.828 631.62 462.603 631.432 463.841ZM636.384 464.553 640.097 465.116 640.284 463.878 636.571 463.315 636.384 464.553ZM641.335 465.266 645.048 465.829 645.236 464.591 641.522 464.028 641.335 465.266ZM646.286 466.016 648.574 466.354 648.574 466.354 649.999 466.579 650.187 465.341 648.762 465.116 646.474 464.778 646.286 466.016ZM651.237 466.766 654.951 467.329 655.138 466.091 651.425 465.528 651.237 466.766ZM656.188 467.516 659.902 468.079 660.089 466.841 656.376 466.279 656.188 467.516ZM661.102 468.267 663.915 468.679 663.915 468.679 664.816 468.829 665.003 467.591 664.103 467.441 661.327 467.029 661.102 468.267ZM666.053 469.017 669.767 469.617 669.954 468.379 666.241 467.779 666.053 469.017ZM671.005 469.805 674.718 470.405 674.906 469.167 671.192 468.567 671.005 469.805ZM675.956 470.592 679.182 471.117 679.182 471.117 679.632 471.192 679.857 469.955 679.369 469.88 676.143 469.354 675.956 470.592ZM680.87 471.38 684.583 472.018 684.771 470.78 681.057 470.142 680.87 471.38ZM685.821 472.205 689.497 472.843 689.722 471.605 686.008 470.967 685.821 472.205ZM690.735 473.03 694.373 473.63 694.373 473.63 694.448 473.668 694.636 472.43 694.598 472.43 690.96 471.793 690.735 473.03ZM695.648 473.856 699.362 474.531 699.587 473.293 695.873 472.655 695.648 473.856ZM700.6 474.756 704.275 475.393 704.5 474.156 700.787 473.518 700.6 474.756ZM705.513 475.618 709.189 476.256 709.414 475.018 705.738 474.381 705.513 475.618ZM710.427 476.481 714.103 477.156 714.328 475.956 710.652 475.243 710.427 476.481ZM715.341 477.381 719.017 478.094 719.279 476.856 715.566 476.181 715.341 477.381ZM720.254 478.319 723.968 478.994 724.193 477.757 720.479 477.081 720.254 478.319ZM725.168 479.219 728.844 479.97 729.107 478.732 725.431 478.019 725.168 479.219ZM730.082 480.195 733.758 480.907 733.983 479.707 730.307 478.957 730.082 480.195ZM734.996 481.17 738.672 481.883 738.897 480.645 735.221 479.932 734.996 481.17ZM739.872 482.145 743.548 482.895 743.81 481.658 740.134 480.907 739.872 482.145ZM744.786 483.12 748.461 483.871 748.724 482.67 745.048 481.92 744.786 483.12ZM749.699 484.133 753.375 484.883 753.6 483.645 749.924 482.895 749.699 484.133ZM754.576 485.146 758.251 485.896 758.514 484.696 754.838 483.908 754.576 485.146ZM759.489 486.159 763.165 486.946 763.39 485.708 759.752 484.958 759.489 486.159ZM764.365 487.209 768.041 487.997 768.304 486.759 764.628 485.971 764.365 487.209ZM769.242 488.222 772.918 489.047 773.18 487.809 769.542 487.021 769.242 488.222ZM774.155 489.309 777.831 490.097 778.094 488.859 774.418 488.072 774.155 489.309ZM779.032 490.36 782.708 491.147 782.97 489.947 779.294 489.122 779.032 490.36ZM783.908 491.41 783.983 491.447 783.983 491.41 787.584 492.235 787.846 490.997 784.245 490.21 784.17 490.21 783.908 491.41ZM788.822 492.498 792.46 493.323 792.722 492.085 789.084 491.26 788.822 492.498ZM793.698 493.585 797.336 494.373 797.636 493.173 793.96 492.348 793.698 493.585ZM798.574 494.673 798.724 494.673 802.212 495.498 802.512 494.261 798.987 493.473 798.836 493.435 798.574 494.673ZM803.45 495.761 807.089 496.586 807.389 495.348 803.713 494.523 803.45 495.761ZM808.326 496.849 812.002 497.674 812.265 496.436 808.589 495.648 808.326 496.849ZM813.203 497.937 816.878 498.762 817.141 497.561 813.465 496.736 813.203 497.937ZM818.079 499.062 821.755 499.85 822.017 498.649 818.379 497.824 818.079 499.062ZM820.142 502.7 828.281 500.675 821.792 495.386 820.142 502.7Z" id="path3217" stroke="#000000" stroke-width="0.0375093" stroke-linecap="butt" stroke-linejoin="round" stroke-dasharray="" stroke-opacity="1" fill="#000000" fill-rule="nonzero" fill-opacity="1"/><text id="text3219" fill="#000000" font-family="verdana" font-style="italic" font-weight="400" font-size="13.8034" text-anchor="start" x="620.692" y="485.103">Submit job</text><text id="text3221" fill="#000000" font-family="verdana" font-style="italic" font-weight="400" font-size="13.8034" text-anchor="start" x="604.188" y="501.608">(send dataflow)</text><text id="text3223" fill="#000000" font-family="verdana" font-style="italic" font-weight="400" font-size="13.8034" text-anchor="start" x="731.02" y="505.019">Cancel /</text><text id="text3225" fill="#000000" font-family="verdana" font-style="italic" font-weight="400" font-size="13.8034" text-anchor="start" x="722.167" y="521.523">update job</text><path d="M819.167 486.834 816.128 484.583 816.878 483.608 819.879 485.821 819.167 486.834ZM815.116 483.871 812.115 481.62 812.828 480.607 815.866 482.858 815.116 483.871ZM811.102 480.907 808.064 478.657 808.814 477.644 811.852 479.895 811.102 480.907ZM807.089 477.944 804.013 475.731 804.763 474.718 807.801 476.931 807.089 477.944ZM803 475.018 801.462 473.893 801.462 473.893 799.962 472.805 800.712 471.793 802.212 472.88 803.75 474.006 803 475.018ZM798.949 472.093 795.911 469.917 796.623 468.904 799.662 471.08 798.949 472.093ZM794.861 469.204 791.785 467.104 792.497 466.054 795.573 468.192 794.861 469.204ZM790.772 466.391 789.534 465.528 789.572 465.566 787.659 464.291 788.371 463.24 790.247 464.516 791.485 465.341 790.772 466.391ZM786.608 463.578 783.533 461.515 783.533 461.515 783.495 461.515 784.17 460.465 784.208 460.465 787.321 462.528 786.608 463.578ZM782.445 460.84 779.294 458.814 779.969 457.764 783.12 459.79 782.445 460.84ZM778.244 458.139 777.419 457.652 777.456 457.652 775.056 456.189 775.693 455.138 778.094 456.564 778.919 457.089 778.244 458.139ZM773.968 455.551 771.267 453.901 771.267 453.901 770.78 453.638 771.417 452.55 771.905 452.813 774.643 454.463 773.968 455.551ZM769.692 453 766.428 451.125 767.066 450.075 770.329 451.913 769.692 453ZM765.341 450.525 765.003 450.337 765.041 450.337 762.077 448.762 762.64 447.637 765.641 449.249 765.978 449.437 765.341 450.525ZM760.952 448.162 758.664 446.961 758.701 446.961 757.651 446.436 758.214 445.311 759.264 445.836 761.552 447.074 760.952 448.162ZM756.526 445.874 755.476 445.348 755.476 445.348 753.188 444.223 753.713 443.098 756.038 444.223 757.089 444.748 756.526 445.874ZM752.062 443.698 748.987 442.273 748.987 442.273 748.649 442.16 749.137 440.997 749.474 441.147 752.587 442.573 752.062 443.698ZM747.524 441.635 745.686 440.847 745.686 440.847 744.073 440.21 744.56 439.047 746.173 439.722 748.011 440.51 747.524 441.635ZM742.91 439.722 742.347 439.497 742.347 439.497 739.422 438.334 739.872 437.171 742.835 438.334 743.398 438.559 742.91 439.722ZM738.259 437.922 735.596 436.946 735.633 436.946 734.771 436.646 735.146 435.483 736.046 435.784 738.709 436.759 738.259 437.922ZM733.57 436.271 732.182 435.784 732.182 435.784 730.007 435.108 730.382 433.908 732.595 434.583 733.983 435.071 733.57 436.271ZM728.807 434.733 728.732 434.696 728.732 434.696 725.243 433.683 725.581 432.483 729.107 433.496 729.182 433.533 728.807 434.733ZM724.043 433.383 721.68 432.745 721.68 432.745 720.404 432.445 720.705 431.245 721.98 431.545 724.343 432.183 724.043 433.383ZM719.204 432.183 718.116 431.92 718.116 431.92 715.566 431.357 715.828 430.157 718.379 430.682 719.504 430.945 719.204 432.183ZM714.328 431.132 710.802 430.457 710.84 430.457 710.652 430.42 710.877 429.219 711.027 429.219 714.591 429.895 714.328 431.132ZM709.452 430.232 707.126 429.857 707.126 429.857 705.738 429.67 705.926 428.432 707.314 428.619 709.639 428.994 709.452 430.232ZM704.5 429.482 703.375 429.332 703.375 429.332 700.787 429.032 700.937 427.794 703.563 428.094 704.688 428.244 704.5 429.482ZM699.549 428.882 695.836 428.507 695.948 427.269 699.699 427.607 699.549 428.882ZM694.598 428.394 691.935 428.169 691.935 428.169 690.885 428.094 690.96 426.856 692.047 426.931 694.711 427.156 694.598 428.394ZM689.609 428.019 688.071 427.944 688.071 427.944 685.896 427.832 685.933 426.594 688.146 426.669 689.722 426.781 689.609 428.019ZM684.658 427.757 684.133 427.757 684.17 427.757 680.907 427.644 680.945 426.406 684.208 426.519 684.696 426.519 684.658 427.757ZM679.669 427.607 676.218 427.569 676.218 427.569 675.918 427.569 675.918 426.331 676.256 426.331 679.669 426.369 679.669 427.607ZM674.681 427.569 672.205 427.569 672.242 427.569 670.93 427.569 670.892 426.331 672.205 426.294 674.681 426.294 674.681 427.569ZM669.692 427.607 665.941 427.682 665.903 426.406 669.654 426.331 669.692 427.607ZM664.666 427.682 664.14 427.682 664.14 427.682 660.952 427.832 660.877 426.594 664.103 426.444 664.666 426.444 664.666 427.682ZM659.714 427.869 655.963 428.019 655.963 428.019 655.963 428.019 655.888 426.781 655.888 426.781 659.639 426.631 659.714 427.869ZM654.726 428.094 650.975 428.357 650.9 427.081 654.651 426.856 654.726 428.094ZM649.737 428.432 647.674 428.544 647.711 428.544 645.986 428.657 645.911 427.419 647.599 427.306 649.662 427.156 649.737 428.432ZM644.748 428.769 640.997 429.069 640.922 427.794 644.636 427.531 644.748 428.769ZM639.759 429.144 639.347 429.182 639.347 429.182 636.046 429.482 635.933 428.244 639.234 427.944 639.647 427.907 639.759 429.144ZM634.771 429.595 631.057 429.97 630.945 428.694 634.658 428.357 634.771 429.595ZM629.819 430.082 626.068 430.457 625.956 429.219 629.669 428.844 629.819 430.082ZM624.831 430.607 622.468 430.87 622.468 430.87 621.117 431.02 620.967 429.782 622.355 429.595 624.718 429.369 624.831 430.607ZM619.879 431.132 616.166 431.582 616.016 430.345 619.729 429.895 619.879 431.132ZM614.891 431.733 613.99 431.845 613.99 431.845 611.177 432.145 611.027 430.907 613.84 430.57 614.778 430.495 614.891 431.733ZM609.939 432.295 606.226 432.745 606.076 431.507 609.789 431.057 609.939 432.295ZM604.988 432.933 601.275 433.383 601.087 432.145 604.838 431.658 604.988 432.933ZM600.037 433.533 596.286 434.021 596.136 432.783 599.849 432.295 600.037 433.533ZM595.048 434.171 594.486 434.246 594.336 433.008 594.898 432.933 595.048 434.171ZM596.136 437.209 588.222 434.433 595.198 429.745 596.136 437.209Z" id="path3227" stroke="#000000" stroke-width="0.0375093" stroke-linecap="butt" stroke-linejoin="round" stroke-dasharray="" stroke-opacity="1" fill="#000000" fill-rule="nonzero" fill-opacity="1"/><text id="text3229" fill="#000000" font-family="verdana" font-style="italic" font-weight="400" font-size="13.8034" text-anchor="start" x="637.292" y="402.231">Status</text><text id="text3231" fill="#000000" font-family="verdana" font-style="italic" font-weight="400" font-size="13.8034" text-anchor="start" x="632.041" y="418.735">updates</text><text id="text3233" fill="#000000" font-family="verdana" font-style="italic" font-weight="400" font-size="13.8034" text-anchor="start" x="724.876" y="415.904">Statistics &amp;</text><text id="text3235" fill="#000000" font-family="verdana" font-style="italic" font-weight="400" font-size="13.8034" text-anchor="start" x="740.78" y="432.408">results</text><path d="M421.755 306.264 538.034 306.264 538.034 353.507C479.895 353.507 479.895 371.511 421.755 361.29Z" id="path3237" stroke="none" fill="#E6526E" fill-rule="evenodd" fill-opacity="1"/><path d="M421.755 306.264 538.034 306.264 538.034 353.507C479.895 353.507 479.895 371.511 421.755 361.29Z" id="path3239" stroke="#8A3142" stroke-width="1.25656" stroke-linecap="butt" stroke-linejoin="miter" stroke-miterlimit="4" stroke-dasharray="" stroke-opacity="1" fill="none"/><text id="text3241" fill="#000000" font-family="verdana" font-style="normal" font-weight="400" font-size="13.2033" text-anchor="start" x="451.717" y="327.26">Program</text><text id="text3243" fill="#000000" font-family="verdana" font-style="normal" font-weight="400" font-size="13.2033" text-anchor="start" x="464.471" y="343.014">code</text><path d="M904.238 517.741 904.238 550.225 999.737 550.225 999.737 517.741 904.238 517.741Z" id="path3245" stroke="none" fill="#B8BEC6" fill-rule="evenodd" fill-opacity="1"/><path d="M904.238 517.741 999.737 517.741 999.737 550.225 904.238 550.225Z" id="path3247" stroke="#6E7277" stroke-width="1.23781" stroke-linecap="butt" stroke-linejoin="miter" stroke-miterlimit="4" stroke-dasharray="" stroke-opacity="1" fill="none"/><text id="text3249" fill="#000000" font-family="verdana" font-style="normal" font-weight="400" font-size="13.2033" text-anchor="start" x="919.129" y="539.229">Scheduler</text><path d="M904.238 553.826 904.238 586.196 999.737 586.196 999.737 553.826 904.238 553.826Z" id="path3251" stroke="none" fill="#B8BEC6" fill-rule="evenodd" fill-opacity="1"/><path d="M904.238 553.826 999.737 553.826 999.737 586.196 904.238 586.196Z" id="path3253" stroke="#6E7277" stroke-width="1.23781" stroke-linecap="butt" stroke-linejoin="miter" stroke-miterlimit="4" stroke-dasharray="" stroke-opacity="1" fill="none"/><text id="text3255" fill="#000000" font-family="verdana" font-style="normal" font-weight="400" font-size="13.2033" text-anchor="start" x="915.225" y="567.338">Checkpoint</text><text id="text3257" fill="#000000" font-family="verdana" font-style="normal" font-weight="400" font-size="13.2033" text-anchor="start" x="913.124" y="583.092">Coordinator</text><path d="M352.982 391.898 352.982 435.202 460.821 435.202 460.821 391.898 352.982 391.898Z" id="path3259" stroke="none" fill="#E4EAF4" fill-rule="evenodd" fill-opacity="1"/><path d="M352.982 391.898 460.821 391.898 460.821 435.202 352.982 435.202Z" id="path3261" stroke="#898C92" stroke-width="1.25656" stroke-linecap="butt" stroke-linejoin="miter" stroke-miterlimit="4" stroke-dasharray="" stroke-opacity="1" fill="none"/><text id="text3263" fill="#000000" font-family="verdana" font-style="normal" font-weight="400" font-size="13.8034" text-anchor="start" x="367.772" y="410.744">Optimizer /</text><text id="text3265" fill="#000000" font-family="verdana" font-style="normal" font-weight="400" font-size="13.8034" text-anchor="start" x="359.37" y="427.248">Graph Builder</text><path d="M400.619 432.22 399.868 433.589 399.887 433.589 399.174 434.958 399.174 434.94 398.893 435.521 397.768 434.977 398.049 434.396 398.781 433.008 399.531 431.62 400.618 432.22ZM398.387 436.609 397.974 437.622 397.993 437.584 397.562 438.897 397.58 438.822 397.299 440.078 396.08 439.816 396.361 438.522 396.811 437.153 397.243 436.14 398.387 436.609ZM397.224 441.241 397.224 441.241 397.224 441.166 397.261 441.766 397.243 441.71 397.336 442.291 397.336 442.235 397.486 442.798 397.468 442.741 397.693 443.304 397.655 443.229 397.955 443.773 397.918 443.717 398.293 444.242 398.255 444.186 398.293 444.242 397.355 445.067 397.28 444.992 396.886 444.411 396.549 443.792 396.286 443.173 396.117 442.535 396.005 441.879 395.967 441.204 395.967 441.147 397.224 441.241ZM399.118 445.105 399.174 445.142 399.137 445.105 399.756 445.592 399.7 445.555 400.412 446.005 400.375 445.986 401.181 446.417 401.125 446.399 402.025 446.811 401.988 446.792 402.156 446.849 401.706 448.03 401.538 447.955 400.581 447.524 399.756 447.074 399.006 446.586 398.349 446.08 398.274 446.005 399.118 445.105ZM403.3 447.28 404.088 447.543 404.051 447.543 405.27 447.88 405.251 447.88 406.564 448.199 406.545 448.18 406.845 448.255 406.583 449.474 406.283 449.399 404.951 449.081 403.694 448.743 402.888 448.462 403.3 447.28ZM408.045 448.499 409.546 448.743 409.527 448.743 411.234 448.968 411.215 448.968 411.721 449.043 411.571 450.281 411.065 450.225 409.339 449.981 407.839 449.718 408.045 448.499ZM412.959 449.174 413.015 449.193 413.015 449.193 414.947 449.381 414.928 449.381 416.673 449.512 416.579 450.75 414.835 450.619 412.884 450.431 412.809 450.431 412.959 449.174ZM417.91 449.587 419.129 449.681 419.111 449.681 421.38 449.793 421.361 449.793 421.642 449.793 421.586 451.05 421.305 451.031 419.054 450.919 417.835 450.844 417.91 449.587ZM422.899 449.85 423.724 449.887 423.724 449.887 426.181 449.962 426.181 449.962 426.631 449.962 426.612 451.219 426.162 451.2 423.687 451.125 422.843 451.087 422.899 449.85ZM427.869 449.981 428.732 450 428.732 450 431.376 450.037 431.376 450.037 431.62 450.037 431.62 451.294 431.357 451.294 428.713 451.256 427.85 451.237 427.869 449.981ZM432.877 450.037 434.114 450.056 434.096 450.056 436.609 450.037 436.628 451.294 434.096 451.294 432.858 451.294 432.877 450.037ZM437.865 450.037 439.797 450.018 439.797 450.018 441.616 450 441.635 451.256 439.816 451.275 437.865 451.275 437.865 450.037ZM442.854 449.981 445.799 449.925 446.605 449.906 446.643 451.162 445.817 451.181 442.873 451.237 442.854 449.981ZM447.862 449.887 448.893 449.868 448.893 449.868 451.594 449.793 451.631 451.031 448.931 451.106 447.88 451.125 447.862 449.887ZM452.85 449.756 455.288 449.681 455.288 449.681 456.601 449.643 456.639 450.881 455.326 450.937 452.888 451.012 452.85 449.756ZM457.839 449.587 461.59 449.474 461.646 450.712 457.895 450.844 457.839 449.587ZM462.847 449.418 466.598 449.268 466.635 450.525 462.884 450.675 462.847 449.418ZM467.835 449.231 468.698 449.193 468.698 449.193 471.586 449.062 471.643 450.318 468.736 450.45 467.892 450.487 467.835 449.231ZM472.843 449.024 475.656 448.893 475.637 448.893 476.575 448.856 476.631 450.093 475.694 450.15 472.88 450.262 472.843 449.024ZM477.832 448.799 481.582 448.612 481.639 449.868 477.888 450.037 477.832 448.799ZM482.82 448.555 486.571 448.387 486.628 449.624 482.877 449.812 482.82 448.555ZM487.809 448.33 489.891 448.218 491.56 448.143 491.635 449.381 489.966 449.474 487.884 449.568 487.809 448.33ZM492.817 448.068 496.549 447.88 496.624 449.137 492.873 449.324 492.816 448.068ZM497.805 447.824 498.162 447.805 498.218 449.043 497.862 449.062 497.805 447.824ZM496.755 444.748 504.426 448.105 497.13 452.231 496.755 444.748Z" id="path3267" stroke="#000000" stroke-width="0.0187547" stroke-linecap="butt" stroke-linejoin="round" stroke-dasharray="" stroke-opacity="1" fill="#000000" fill-rule="nonzero" fill-opacity="1"/><text id="text3269" fill="#000000" font-family="verdana" font-style="italic" font-weight="400" font-size="13.8034" text-anchor="start" x="363.566" y="467.157">Dataflow graph</text><path d="M442.441 350.206 439.441 352.438 438.691 351.444 441.71 349.212 442.441 350.206ZM438.428 353.188 435.427 355.439 434.677 354.445 437.678 352.194 438.428 353.188ZM434.452 356.189 431.489 358.496 430.72 357.52 433.683 355.214 434.452 356.189ZM430.532 359.283 427.644 361.665 426.856 360.709 429.745 358.308 430.532 359.283ZM426.725 362.49 425.919 363.184 425.937 363.184 424.306 364.666 424.325 364.647 423.968 364.985 423.105 364.084 423.462 363.747 425.094 362.246 425.9 361.534 426.725 362.49ZM423.068 365.847 422.768 366.147 422.768 366.147 421.286 367.667 421.305 367.648 420.499 368.529 419.58 367.685 420.386 366.804 421.886 365.266 422.205 364.947 423.068 365.847ZM419.673 369.448 418.604 370.705 418.623 370.686 417.423 372.261 417.442 372.224 417.367 372.318 416.354 371.605 416.429 371.511 417.648 369.917 418.736 368.642 419.673 369.448ZM416.654 373.349 416.335 373.818 416.354 373.799 415.341 375.412 415.36 375.394 414.741 376.5 413.653 375.9 414.272 374.775 415.304 373.124 415.641 372.637 416.654 373.349ZM414.197 377.588 413.672 378.638 413.691 378.619 412.978 380.288 412.997 380.251 412.715 380.964 411.553 380.532 411.815 379.801 412.547 378.113 413.072 377.044 414.197 377.588ZM412.303 382.126 411.815 383.627 411.834 383.608 411.346 385.315 411.346 385.296 411.252 385.671 410.033 385.371 410.127 384.977 410.634 383.252 411.121 381.733 412.303 382.126ZM410.952 386.89 410.915 387.021 410.934 386.984 410.24 390.472 410.24 390.453 410.24 390.491 409.002 390.322 409.002 390.247 409.696 386.74 409.733 386.59 410.952 386.89ZM410.052 391.729 409.621 394.842 408.383 394.673 408.814 391.56 410.052 391.729ZM412.884 393.942 408.308 400.975 405.42 393.098 412.884 393.942Z" id="path3271" stroke="#000000" stroke-width="0.0187547" stroke-linecap="butt" stroke-linejoin="round" stroke-dasharray="" stroke-opacity="1" fill="#000000" fill-rule="nonzero" fill-opacity="1"/><text id="text3273" fill="#000000" font-family="verdana" font-style="italic" font-weight="400" font-size="13.8034" text-anchor="start" x="347.758" y="363.583">Program</text><text id="text3275" fill="#000000" font-family="verdana" font-style="italic" font-weight="400" font-size="13.8034" text-anchor="start" x="346.857" y="380.087">Dataflow</text></g></g></svg>